<mxfile host="app.diagrams.net" modified="2023-12-23T19:57:47.347Z" agent="Mozilla/5.0 (Windows NT 10.0; Win64; x64) AppleWebKit/537.36 (KHTML, like Gecko) Chrome/120.0.0.0 Safari/537.36 Edg/120.0.0.0" etag="VK2rHMJptBkvmphj9tVl" version="22.1.11" type="onedrive">
  <diagram name="Page-1" id="jdehFLO601TH4vt0HT6T">
    <mxGraphModel grid="1" page="1" gridSize="10" guides="1" tooltips="1" connect="1" arrows="1" fold="1" pageScale="1" pageWidth="827" pageHeight="1169" math="0" shadow="0">
      <root>
        <mxCell id="0" />
        <mxCell id="1" parent="0" />
        <mxCell id="9WvtvUq7fJrsQNisKzhk-1" style="edgeStyle=orthogonalEdgeStyle;rounded=0;orthogonalLoop=1;jettySize=auto;html=1;exitX=0.5;exitY=1;exitDx=0;exitDy=0;" edge="1" parent="1" source="9WvtvUq7fJrsQNisKzhk-2" target="9WvtvUq7fJrsQNisKzhk-4">
          <mxGeometry relative="1" as="geometry">
            <mxPoint x="260" y="320" as="targetPoint" />
          </mxGeometry>
        </mxCell>
        <mxCell id="9WvtvUq7fJrsQNisKzhk-2" value="&lt;font style=&quot;font-size: 14px;&quot;&gt;New Process Started {12_Random_LowerCase_Chars}.exe&lt;/font&gt;" style="rounded=0;whiteSpace=wrap;html=1;fillColor=#f5f5f5;fontColor=#333333;strokeColor=#666666;" vertex="1" parent="1">
          <mxGeometry x="137.5" y="230" width="245" height="60" as="geometry" />
        </mxCell>
        <mxCell id="9WvtvUq7fJrsQNisKzhk-3" style="edgeStyle=orthogonalEdgeStyle;rounded=0;orthogonalLoop=1;jettySize=auto;html=1;exitX=0.5;exitY=1;exitDx=0;exitDy=0;" edge="1" parent="1" source="9WvtvUq7fJrsQNisKzhk-12" target="9WvtvUq7fJrsQNisKzhk-6">
          <mxGeometry relative="1" as="geometry">
            <mxPoint x="259.9565217391305" y="440" as="targetPoint" />
          </mxGeometry>
        </mxCell>
        <mxCell id="9WvtvUq7fJrsQNisKzhk-4" value="&lt;div style=&quot;border-color: var(--border-color); color: rgb(56, 58, 66); font-family: Consolas, &amp;quot;Courier New&amp;quot;, monospace; font-size: 14px;&quot;&gt;Adds itself to start-up using this registry value:&lt;/div&gt;&lt;div style=&quot;border-color: var(--border-color); color: rgb(56, 58, 66); font-family: Consolas, &amp;quot;Courier New&amp;quot;, monospace; font-size: 14px;&quot;&gt;HKEY_CURRENT_USER\Software\Microsoft\Windows\CurrentVersion\Run\{New_12_Random_LowerCase_Chars} = C:\Windows\system32\cmd.exe&amp;nbsp;/c start &quot;&quot; &quot;{CURR_EXE_PATH}&quot;&lt;br&gt;&lt;/div&gt;" style="rounded=0;whiteSpace=wrap;html=1;fillColor=#dae8fc;strokeColor=#6c8ebf;" vertex="1" parent="1">
          <mxGeometry x="-127.5" y="320" width="775" height="80" as="geometry" />
        </mxCell>
        <mxCell id="9WvtvUq7fJrsQNisKzhk-5" style="edgeStyle=orthogonalEdgeStyle;rounded=0;orthogonalLoop=1;jettySize=auto;html=1;exitX=0.5;exitY=1;exitDx=0;exitDy=0;" edge="1" parent="1" source="9WvtvUq7fJrsQNisKzhk-6" target="9WvtvUq7fJrsQNisKzhk-9">
          <mxGeometry relative="1" as="geometry">
            <mxPoint x="260.090909090909" y="730" as="targetPoint" />
          </mxGeometry>
        </mxCell>
        <mxCell id="9WvtvUq7fJrsQNisKzhk-6" value="&lt;div style=&quot;color: rgb(56, 58, 66); font-family: Consolas, &amp;quot;Courier New&amp;quot;, monospace; font-size: 14px; line-height: 19px;&quot;&gt;&lt;div style=&quot;&quot;&gt;Create a mutex so only one instance runs at a time:&lt;/div&gt;&lt;div style=&quot;&quot;&gt;CreateMutexW &lt;span style=&quot;color: #a626a4;&quot;&gt;=&lt;/span&gt; &lt;span style=&quot;color: #4078f2;&quot;&gt;findFunc&lt;/span&gt;(&lt;span style=&quot;color: #986801;&quot;&gt;0x0&lt;/span&gt;,&lt;span style=&quot;color: #986801;&quot;&gt;1&lt;/span&gt;,&lt;span style=&quot;color: #986801;&quot;&gt;0xbf78968a&lt;/span&gt;)&lt;span style=&quot;color: #a0a1a7;font-style: italic;&quot;&gt; // Find CreateMutexW with hash 0xbf78968a from kernel32.dll&lt;/span&gt;&lt;/div&gt;&lt;div style=&quot;&quot;&gt;&lt;span style=&quot;color: #4078f2;&quot;&gt;CreateMutexW&lt;/span&gt;(&lt;span style=&quot;color: #986801;&quot;&gt;NULL&lt;/span&gt;, &lt;span style=&quot;color: #986801;&quot;&gt;FALSE&lt;/span&gt;, L&lt;span style=&quot;color: #50a14f;&quot;&gt;&quot;ityeofm9234-23423&quot;&lt;/span&gt;)&lt;/div&gt;&lt;div style=&quot;&quot;&gt;lastErr &lt;span style=&quot;color: #a626a4;&quot;&gt;=&lt;/span&gt; &lt;span style=&quot;color: #4078f2;&quot;&gt;GetLastError&lt;/span&gt;()&lt;/div&gt;&lt;div style=&quot;&quot;&gt;&amp;nbsp;&lt;span style=&quot;color: #a626a4;&quot;&gt;if&lt;/span&gt; lastErr &lt;span style=&quot;color: #a626a4;&quot;&gt;==&lt;/span&gt; ERROR_ALREADY_EXISTS&lt;span style=&quot;color: #a0a1a7;font-style: italic;&quot;&gt; /*0xb7*/&lt;/span&gt;:&lt;/div&gt;&lt;div style=&quot;&quot;&gt;&lt;span style=&quot;color: rgb(166, 38, 164);&quot;&gt;return&lt;/span&gt; &lt;span style=&quot;color: rgb(152, 104, 1);&quot;&gt;1&lt;/span&gt;&lt;/div&gt;&lt;/div&gt;" style="rounded=0;whiteSpace=wrap;html=1;fillColor=#d5e8d4;strokeColor=#82b366;" vertex="1" parent="1">
          <mxGeometry x="-55" y="520" width="630" height="150" as="geometry" />
        </mxCell>
        <mxCell id="9WvtvUq7fJrsQNisKzhk-7" value="&lt;div style=&quot;border-color: var(--border-color); color: rgb(56, 58, 66); font-family: Consolas, &amp;quot;Courier New&amp;quot;, monospace; font-size: 14px;&quot;&gt;The findFunc process is very similar to the one used in the unpackers but using hashes instead of string function names&lt;/div&gt;" style="text;html=1;strokeColor=none;fillColor=none;align=center;verticalAlign=middle;whiteSpace=wrap;rounded=0;" vertex="1" parent="1">
          <mxGeometry x="575" y="550" width="270" height="30" as="geometry" />
        </mxCell>
        <mxCell id="9WvtvUq7fJrsQNisKzhk-8" style="edgeStyle=orthogonalEdgeStyle;rounded=0;orthogonalLoop=1;jettySize=auto;html=1;exitX=0.5;exitY=1;exitDx=0;exitDy=0;entryX=0.5;entryY=0;entryDx=0;entryDy=0;" edge="1" parent="1" source="9WvtvUq7fJrsQNisKzhk-9" target="9WvtvUq7fJrsQNisKzhk-16">
          <mxGeometry relative="1" as="geometry">
            <mxPoint x="260.1578947368421" y="910" as="targetPoint" />
          </mxGeometry>
        </mxCell>
        <mxCell id="9WvtvUq7fJrsQNisKzhk-9" value="&lt;div style=&quot;color: rgb(56, 58, 66); font-family: Consolas, &amp;quot;Courier New&amp;quot;, monospace; font-size: 14px; line-height: 19px;&quot;&gt;Next it checks the registry key&lt;/div&gt;&lt;div style=&quot;color: rgb(56, 58, 66); font-family: Consolas, &amp;quot;Courier New&amp;quot;, monospace; font-size: 14px; line-height: 19px;&quot;&gt;HKEY_CURRENT_USER\Software&lt;span style=&quot;color: #0184bc;&quot;&gt;\&lt;/span&gt;&lt;span style=&quot;color: #50a14f;&quot;&gt;xxxsys&lt;/span&gt;&lt;span style=&quot;color: #0184bc;&quot;&gt;\&quot;ID&quot;&lt;/span&gt;&lt;/div&gt;&lt;div style=&quot;color: rgb(56, 58, 66); font-family: Consolas, &amp;quot;Courier New&amp;quot;, monospace; font-size: 14px; line-height: 19px;&quot;&gt;If it doesn&#39;t exist it populates it with 8 random bytes&lt;/div&gt;&lt;div style=&quot;color: rgb(56, 58, 66); font-family: Consolas, &amp;quot;Courier New&amp;quot;, monospace; font-size: 14px; line-height: 19px;&quot;&gt;and the string representation of those bytes are stored&lt;/div&gt;" style="rounded=0;whiteSpace=wrap;html=1;fillColor=#fff2cc;strokeColor=#d6b656;" vertex="1" parent="1">
          <mxGeometry x="-50" y="700" width="620" height="160" as="geometry" />
        </mxCell>
        <mxCell id="9WvtvUq7fJrsQNisKzhk-10" value="&lt;div style=&quot;border-color: var(--border-color); color: rgb(56, 58, 66); font-family: Consolas, &amp;quot;Courier New&amp;quot;, monospace; font-size: 14px;&quot;&gt;The mutex name changes with the TeslaCrypt variants&lt;/div&gt;" style="text;html=1;strokeColor=none;fillColor=none;align=center;verticalAlign=middle;whiteSpace=wrap;rounded=0;" vertex="1" parent="1">
          <mxGeometry x="570" y="610" width="270" height="30" as="geometry" />
        </mxCell>
        <mxCell id="9WvtvUq7fJrsQNisKzhk-11" value="" style="edgeStyle=orthogonalEdgeStyle;rounded=0;orthogonalLoop=1;jettySize=auto;html=1;exitX=0.5;exitY=1;exitDx=0;exitDy=0;" edge="1" parent="1" source="9WvtvUq7fJrsQNisKzhk-4" target="9WvtvUq7fJrsQNisKzhk-12">
          <mxGeometry relative="1" as="geometry">
            <mxPoint x="260" y="520" as="targetPoint" />
            <mxPoint x="260" y="400" as="sourcePoint" />
          </mxGeometry>
        </mxCell>
        <mxCell id="9WvtvUq7fJrsQNisKzhk-12" value="&lt;div style=&quot;color: rgb(56, 58, 66); font-family: Consolas, &amp;quot;Courier New&amp;quot;, monospace; font-size: 14px; line-height: 19px;&quot;&gt;It also attempts to set EnableLinkedConnections to 1 so symbolic links are accessible when in an elevated process (Microsoft, 2021c):&lt;/div&gt;&lt;div style=&quot;color: rgb(56, 58, 66); font-family: Consolas, &amp;quot;Courier New&amp;quot;, monospace; font-size: 14px; line-height: 19px;&quot;&gt;HKEY_LOCAL_MACHINE\Software\Microsoft\Windows\CurrentVersion\Policies\System\EnableLinkedConnections = 1&lt;/div&gt;" style="rounded=0;whiteSpace=wrap;html=1;fillColor=#dae8fc;strokeColor=#6c8ebf;" vertex="1" parent="1">
          <mxGeometry x="-145" y="430" width="810" height="60" as="geometry" />
        </mxCell>
        <mxCell id="9WvtvUq7fJrsQNisKzhk-13" value="&lt;div style=&quot;border-color: var(--border-color); color: rgb(56, 58, 66); font-family: Consolas, &amp;quot;Courier New&amp;quot;, monospace; font-size: 14px;&quot;&gt;The registry key&amp;nbsp;HKEY_USERS&lt;span style=&quot;background-color: initial;&quot;&gt;\&lt;/span&gt;&lt;span style=&quot;background-color: initial; color: rgb(80, 161, 79);&quot;&gt;S-1-5-18&lt;/span&gt;&lt;span style=&quot;background-color: initial; color: rgb(1, 132, 188);&quot;&gt;\&lt;/span&gt;&lt;span style=&quot;background-color: initial; color: rgb(80, 161, 79);&quot;&gt;Software&lt;/span&gt;&lt;span style=&quot;background-color: initial; color: rgb(1, 132, 188);&quot;&gt;\&lt;/span&gt;&lt;span style=&quot;background-color: initial; color: rgb(80, 161, 79);&quot;&gt;xxxsys&lt;/span&gt;&lt;span style=&quot;background-color: initial; color: rgb(1, 132, 188);&quot;&gt;\&quot;ID&quot;&lt;/span&gt;&lt;/div&gt;&lt;div style=&quot;border-color: var(--border-color); font-family: Consolas, &amp;quot;Courier New&amp;quot;, monospace; font-size: 14px;&quot;&gt;&lt;font color=&quot;#383a42&quot;&gt;is attempted to be checked but returns&amp;nbsp;ERROR_BAD_PATHNAME due to a leading backslash in the command (Microsoft, 2005)&lt;/font&gt;&lt;/div&gt;" style="text;html=1;strokeColor=none;fillColor=none;align=center;verticalAlign=middle;whiteSpace=wrap;rounded=0;" vertex="1" parent="1">
          <mxGeometry x="570" y="690" width="270" height="100" as="geometry" />
        </mxCell>
        <mxCell id="9WvtvUq7fJrsQNisKzhk-14" value="&lt;div style=&quot;border-color: var(--border-color); color: rgb(56, 58, 66); font-family: Consolas, &amp;quot;Courier New&amp;quot;, monospace; font-size: 14px;&quot;&gt;The randomisation function is the same as the one detailed in the &quot;Random Function&quot; section of&amp;nbsp;Skuratovich (2016)&lt;/div&gt;" style="text;html=1;strokeColor=none;fillColor=none;align=center;verticalAlign=middle;whiteSpace=wrap;rounded=0;" vertex="1" parent="1">
          <mxGeometry x="570" y="800" width="270" height="70" as="geometry" />
        </mxCell>
        <mxCell id="9WvtvUq7fJrsQNisKzhk-15" style="edgeStyle=orthogonalEdgeStyle;rounded=0;orthogonalLoop=1;jettySize=auto;html=1;exitX=0.5;exitY=1;exitDx=0;exitDy=0;" edge="1" parent="1" source="9WvtvUq7fJrsQNisKzhk-16" target="9WvtvUq7fJrsQNisKzhk-20">
          <mxGeometry relative="1" as="geometry">
            <mxPoint x="260.14285714285734" y="1130" as="targetPoint" />
          </mxGeometry>
        </mxCell>
        <mxCell id="9WvtvUq7fJrsQNisKzhk-16" value="&lt;div style=&quot;color: rgb(56, 58, 66); font-family: Consolas, &amp;quot;Courier New&amp;quot;, monospace; font-size: 14px; line-height: 19px;&quot;&gt;It then checks whether the registry key:&lt;/div&gt;&lt;div style=&quot;font-family: Consolas, &amp;quot;Courier New&amp;quot;, monospace; font-size: 14px; line-height: 19px;&quot;&gt;&lt;div style=&quot;line-height: 19px;&quot;&gt;&lt;div style=&quot;line-height: 19px;&quot;&gt;&lt;font style=&quot;&quot; color=&quot;#383a42&quot;&gt;HKEY_CURRENT_USER\Software\xxxsys\{8_random_bytes_string}\&lt;/font&gt;&lt;span style=&quot;color: rgb(80, 161, 79);&quot;&gt;&quot;data&quot;&amp;nbsp;&lt;/span&gt;&lt;/div&gt;&lt;div style=&quot;line-height: 19px;&quot;&gt;&lt;font color=&quot;#383a42&quot;&gt;is of size 0x100. The malware then assumes the data is in the structure shown on the right and it is stored in memory.&amp;nbsp;&lt;/font&gt;&lt;/div&gt;&lt;div style=&quot;line-height: 19px;&quot;&gt;&lt;font color=&quot;#383a42&quot;&gt;&lt;br&gt;&lt;/font&gt;&lt;/div&gt;&lt;div style=&quot;line-height: 19px;&quot;&gt;&lt;font color=&quot;#383a42&quot;&gt;If the key doesn&#39;t exist the values are generated and the structure is populated and stored in memory, then saved in the same registry key.&lt;/font&gt;&lt;/div&gt;&lt;/div&gt;&lt;/div&gt;" style="rounded=0;whiteSpace=wrap;html=1;fillColor=#fff2cc;strokeColor=#d6b656;" vertex="1" parent="1">
          <mxGeometry x="-50" y="910" width="620" height="160" as="geometry" />
        </mxCell>
        <mxCell id="9WvtvUq7fJrsQNisKzhk-17" value="" style="shape=image;verticalLabelPosition=bottom;labelBackgroundColor=default;verticalAlign=top;aspect=fixed;imageAspect=0;image=data:image/png,iVBORw0KGgoAAAANSUhEUgAAA1QAAAC8CAYAAAB/nu8vAAAAAXNSR0IArs4c6QAAAARnQU1BAACxjwv8YQUAAAAJcEhZcwAAEnQAABJ0Ad5mH3gAAABhaVRYdFNuaXBNZXRhZGF0YQAAAAAAeyJjbGlwUG9pbnRzIjpbeyJ4IjowLCJ5IjowfSx7IngiOjg1MiwieSI6MH0seyJ4Ijo4NTIsInkiOjE4OX0seyJ4IjowLCJ5IjoxODl9XX3sToIDAADZ2klEQVR4XuydB1wUxxfHf3ccHL1KEewFGxbsvcbeS9TEkhg1tvTEFFNs0ViTWKKxRGPFDmJv2EXFShMVpCO9d+5u/u9ggeNEvD1AMf/95rORm5ubfTPz3pt5u7OzIkZAQEBAQEBAQEBAQEBAgDdFAZVIJMpPEBAQEBAQEBAQEBAQENCMEgGVcLNKQEBAQEBAQEBAQEBAc8TcvwICAgICAgICAgICAgI8EQIqAQEBAQEBAQEBAQEBLRECKgEBAQEBAQEBAQEBAS0RnqESEIAMzx+E4rpPCpJ0qmHw+FqwFy41CAgICAgICAgIaIAwbRTgRc6ZH9C7a098djgBCi7tbUaRGIrF/daiXuvdeHfyMcz62Q9P8rgvBQQEBAQEBAQEBF7Bawuo4g8B7u8C/rFcQhXnbZP3dSGPC4DnDU/4Pc/hUrRBhoBD8zHt3bk4FPsmwzIZri12x6LzacjRM0GX99vh64/roZaE+1pAQEBAQEBAQEDgFby2gCr6AHDfHUh7S67+v23yvl3k4uGBP7DN/S6ev8n2zY3GybNJFFaJ0e6nibi0ZxCWf9cI9XS47wUEBAQEBAQEBARegbDkT+D/F0U6nscxsgITtO1sCeHGlICAgICAgICAAF+0D6gyAf9fgH8aAkv1gEVSYEUtYNu3yvsPBWQdA1wGAXvouHGDEmTA3Q8KPhcep/bQvLYgO5AGXBwOuG8B5InA7enAOivgV3NgK/0ukr4vJPUglT0E8LzFJXDIvYAjlH6GvlffYiMvELg6BdjgQGWSzEttge0TgMCogu95y8uHtNP4ZfhQTN/ij9xET/w1vSccrQyhb14LHT/YAC+VuuWTG4Zzy6egZyNbmOjrw8SuCXp9uAxnwkgoNeRRHlg1pSca2RpDamiJBu3fwaBBgwqOodOwyffF32hEbgjOrJyGfi1qwMJAD1ITGzT7/hJy1RtWHo5TS6diaFcn1LY2gVRXD0bW9dFh1Hdw8cvgMgGJx+ZheL5co7DyRja1rw82fzCkWNZBw/DZnhDIufyalqs9CsiUTSMSQyIRFSQJCAgICAgICAgI8EC7gIoiCu8PgUO/AikU7DSaBLSaCNRpTl9RYFA435YnALE+QAwdyUmUQF+kBRR8LjwSVZ9Rokgs8gzw7DJwujcFRUcAiwFAg/pA1C7g8DwKigqzBlEgdIrKiOESOFgcEEzp4fS96rw/9w6wtwvgsQPItgMcxwMN2wMZF+h8wQV5eMvLh9xweJ05hfOX9+OL3n3x5ZF41BswBgPrZ+Purs/x/jwPZYxagCIM+6f1wpAfXPDE0BmDxo9H/yZy3N89D8P6zMTRGJWQLv0yfhg4BN/uuIO8xoPw3ru9USvlLs6ePoXTl27D2+cxojK0CAFlgdj2XjcM/W4n7smboN/4iRjbryUskPNCoApZEE5tP4A7SeZo0nUI3v/gfQxoAjw6uhKTB30CtwTl+RXIS3gGXx8f+Pj4ITSJwiaWjsgA5efCwxeBsVkFZSrRqNxyQD9X5FdGBLEQTwkICAgICAgICGiDctt0JSp/vhJFNGM79Rlb3JuxFDmX+Ap83mVsgR5jNyO4hNKIZ2yXlPKJGVvaijH/EC49iTFXB8YW1mbsWXZBUtxvjC2ifK5HCz4XkneCsVWUvoW+LxItj7GLbahcCWP7NjOWyyXnQ+VlZXB/q6CRvHyI38wGSEVMLNZhJq1msyMhJJSSJDf2gYMO06k9m13g6pZ09EPmoCNlTp+eZbFFlchi/usGsGpiXeb8y31llfJJ3DWKmYskzHH2OZbIpbGMO+yXtvpMbDWK7YrWsINKIGfPd45kVnQux6muLELGJRMZu0YwfZEe670usrh9WTqLj09X+awkiZ2f48gkInM2dl86l1ZIBtv3rgkT6fViayPKko9vufzIeeDBnHUXMOhuYb891qadBAQEBAQEBAQE/t/R6g6VSAro6QOKx4D/nfwL/RWKyAEY7Ao0qc0lmAL2jSjiiwFStVi9JrsGPHwA6A+mcqcCulx6PlQXfUPu70qHUd1GY6PrWoyszT2xY9oObRvpQBETiYj8uqXhnIs7nuv1wJwf+sC6qIf00WTKFPQ2lcHv8iVE5je6HNGh4cgQmaH9O11hkZ+PMHRCr47VIUrxh3ewFg2miIbr7jNI1O+JLxYOg8MrN2kwgpWVkdrtTnN07NAUEmQiIT5VSx2pjHIVCD58ETM/3Ieug67hgUyEan1aYlR97W7WCggICAgICAgI/H+j3SzSHOg2DzCgAOdMZ2AtHaeWA+GR3PflRNwccKzDfVBCUrZ2A76JAJoZcWk8yKBgKlUO2PWhKfobnjdLmvfD4DoqEYrYHtPdohATsQvjlHWTPYNvQBpYzkV83dgCZmZmxYf9FLimUliWEIuC3cZ1YFe/DkyQjKuuxxDJPXykiDkPl7MRUBg2RJN6Wmy1kPcIvo9zoFOrJVoVR3RlkuK9Fz9PegetG9aAjaUFzEle+5knkMPyb31yufhT8eUyPL/ph392PIbXcwbTps2x4ndnOAo7+wkICAgICAgICGiB1uGF/VxgpgfQeQwV8gi4/T2wzRHYS4FVVkXfsiIkJhQMWdG/3Gc+yLlXJukaK5+WqXpITaxgbWWivFlG0VA2cpS7PujVQvsBhZs1FG/aMHrsOIwd1BLVuIpYDJuJ9+qIELp7Apo36oDefbqgSdOR2BJogHZf/ICxNlp0MctCFkUsIn1DGGrw85z7yzCkxyQscbmDVOsW6NZvAAaSvAOc7aBTjgavnHLFaDShH/7d8g5mdTFEur83Zo6+iOvlea2WgICAgICAgIDA/y3lul9j0g3ouw/4LBqYuhOoYwE8/Rm4cZfLUBoVFGyJuAm1+k0KRe6LpzCwRf4EPCVIi9NXQnBYJhJb2FajbhE3woT1LnBxefHYvXwc6ubfUVEg+ugmHA6zRJexo9HGIh3hofEwajka3++4jDPzO0GLG3p0bgtYmIqhSIpDfNGWe0rkiIqKLd6FL58ceGxYD89UCwxcdwf+N07i8L4CObfPbPPKAJi9tH3LV+7LEcGqlSMmTOuC9bu6oKsukBsYhLMBr7ujBQQEBAQEBAQE/guUK6AqQgrUmAT0/4gKlAGJz7h0FXSVM3uasyaFFHwuL1ITmhpTMJUaplzEVQB7DpyjgC5TbW4s7QTYkYxxeyng03CXvoqWV2PE9ujcqQF0sq5i53ZfCivKIhMXDp5ArFE3zN7kgnNefnga+Bj3PFywdGIrmGvbu3qN0bKpIRRR13HRt3ATfAWSri7ApKU3kVciiM1GdHQ85Dq10b5rHehxqcgJwvHz/sqd50tBDEMjQ4gUEQgOedmbfbUplx9iOzPYK5+fY7lISVGLzAUEBAQEBAQEBAQ0QKspt/wmcGAEcH4F8GAf8Pg48PAP4Mw2mnabArXbcRlVqN6ZAhs5cG8GcOkf+o074P034HWuOCDig2F7wEoChK2k8nYA/puBfT0An0z6Tu15GHFDoPMECsAoODrcjeT8E3hE5/fZSgHYZODmfS6jChUtr+booe3Hn6GfZQau/dQPvacuwqZ97jhx8jhc9/2LDSuXYM+DwnBCD7XrOEAn1Q2zW3dCv2GjMGb8RHwwdQY++34ptp5+rHy1lxZYYOD4QbCV+2Lt1I/xu8sh/PvrZPQcthIxjZxhV6J9DdCkST1IZD7YPm8xdri6Ye/abzGqTVtMPBT1kjtJemjduQ1M5IHYMmMiFv5zGMfcD2P336uw8VwUd1NQm3L5U3Sns+AfAQEBAQEBAQEBAV6IlFv95f9BM0tNH/JXUACyewgQ/Jw+FP6EJqZ69YF2q4Hew0qJ1HIoOPmIghkKwHJV7iDZzQemL+DyJ1C5DkBIH+CbE8p97cqAynjyNXBkLRWtLI/Ob0K/G7EYuNidxFoEfPS9ihwZFPTNpSCQgr50lds+OnZAHwqSOjlxCYVoIi8fErZgoMPHuNhnK6JPTFXu61EGCiRcXY0ZM5fC7VEy5KrdIjLG6D0xOPRewdaE8ifrMbDj5zifbQF7CwlysrKRnZmBjFwZdY0BGk3bg4t/j0R1vgIrwuH66TBM+fshUhQMIh0zNJvwO3ZPD8TE3qth83swzn1in98OiugTmDtsMtbeSYRMKatID/ZdZ2HVF1IsG/8nqqnkLSLHD1s/GoOv9lHQV/AyKEIXreffwa0FLfIDJq3K5UP2I0x0OIA9qRb47PwcrOkh7EwhICAgICAgICDAD60CqnwoyEh+CMSFUsAhBwzrAPbOgPQVs9vsZ0CkD/1Lv9GvTgEK/caozMipbDIfAeF0iGsAtdsr732UjTwRiPIC0jIBA3vARnn+Mn5U0fLyQpGOsIdeePgsDtkiKQyNzGFTqyEaO9rDRDn3lz/Bmn7t8dUdJyw4fwo/tzMp+B1Fg7H39+DLMTPgEtEZqwI88FXBQ1c8kSHO7xo8n2bAsklndGpkgZeWIk9G4K0b8ImWwbxBe3RuYVewyUaZyJH8zAtePhFIluvBvHpDtHRuAhvV9tWqXA3JCcLMBnuwKUqKcS5fYN/YCitZQEBAQEBAQEDg/wTtAyqBN0/s3+hfcxYutluBR5fnor5qtKMIwe+9GuFrz3ZY8egy5pb4UiAfRRq2DFmPGadyYdjCGb//3h7d6pmgdl0jvLZXkwkICAgICAgICLzVCAHV20yGO6Y0GIkdibXQ//NvMKW3E2qY6SAr5jGuH/oLf7g8BOvxO26d6I5bS/bDX5OdHCRNMe6XyXB+1a2+/wgpl86h55AbeJBR8FmnXnuc9x+InsLNKgEBAQEBAQEBAQ0QAqq3GjnC3b/HpNnrcCUyp8TGCiKJORoN/grrNv6Id8z2YITlZBzV5F1L0uHYmeiGSf83t2gYkh764+8tj3AjIB2pFo3wp0snOFfUrhcCAgICAgICAgL/aYSASkBAQEBAQEBAQEBAQEu03iBNQEBAQEBAQEBAQEDg/x0hoBIQEBAQEBAQEBAQENASIaASEBAQEBAQEBAQEBDQEuEZKgEBAc3IjcfJf4MRKuc+K9ExRsexTeBc9puqqzxpDwPgciMNJapWsw4mD7Eu+wXjAvnI5DJIdN6enVzeNnkFBAQEBKo2b21AlbIbcN0E1PsN6N6VS/yPoshJRmxMCphZdVQ3q7j9zBW5KYiLTobMxBbVLfQr5nZlbhqio1OhY2UHayPh3Vf/KVLuY6itO46r7hap64Cl3h/hh8Yv0R5FGkUrqYChHeWtIH1QZFCZsYCYojhjC3JeXPrLeKUMCjxb9S8azw1HHpeiRNp/MMJPt4U19/lNkBI4D2Ov+qBL7/34pXbZW2/yyVtxpOHyhV4YcSMIDbq442LvbjDmvqmavG3yliQn8AcMvOIJp46H8WdTqzJ9Np+8AgICAgLl4631sXkRQPgNIDGRS6jqJB/CzNZOcHIq5WjZH0tu5XIZC5Eh+uo6zHynMaxNLFG9dh04WFnAoe0o/HgkEOq5NScbwadXYGrvxrAxsYAdlVuzmjnsnAbis+33kcLlgiIO+6a1hlPr6difwKWVgfz5Jaz+oDNqkYz2tWvA1twKDXrPxCavRJquFiLHs83j4VxY7+bN0bJ1O3TtNxofz9+JW7Gq9wf4oHm5Mv+1GNWKy/eyo9UorFW+tEvmjdXDWlFaC/T+5TIyuTLykQdjy3vOaDVsNbw1eb/Xy5AHYdN4ZzSn87YcugoP1cvKuYgfu7fgZGuO5i1bo0PPQXjvk1+xyzOqpB7wyUtkuH2CNoV1pjZr1bYz+oychvn/3kRMWV0hNkTnKZ3x3Xdd8N3cFuhkVUpEk+UFuHcDllHQ82cN+rc6sH8BzfrL0VjZHoBLG2C5ssx6wO/VgJXNgDMu5BC4PKpoLIMI5h1aYK6yPt91xpQuhlXDMbJw7L+1AR7JdmhX/RUBEp+8pUI2dJdsaAPpQv5BNrSJbGgX2dBFsqGMlyiEIhgXA72RrEjGw6ceCC42djVkCPCfj2kH5uJQxkszVT4ay1uJKMjmD5HNUzu33Es2z0MGeWYAPMM94Zf+6ndg8MkrICAgIFA+hItWrwt5EkL9/fAoKhdGZmYwK3EYQ1+i2hUyBO6ajK59P8fma+loMHwWfpi/AD99/h5ay65h7cYzSNBqIpCM60sGoeOQ7/GvVw6ajZqTX+7PX9G5DH2w/Y+DeFI015QhIcQPfn4hSJSVfTJF3El80Xcw5u55BLM+H+OHX37E7GH1kHJ1M2b3H4mV94sH9OzYIPj5P0GcwhRmpqYw1MlGhNcxbF30IXp0nQX3WO1mOJqWKxLrw1il7Y1yo/DI7xGico1K9oeYggRFJmKeKtvAB5fX/479UaqyZSP2GX33NAaZ2omcjzz4CHa5eSM4NAS+Z3bjsK/aZJ+lIiKA9CYsHVIzU5joA2nPbuDwhp/xQbfm6PbVMUQWnp9PXkKRHEZ1e4TIbIP8NtNXJMDn9HYs/qgHOn90sETeElBA1XVGbyxb9g6WLWmPntZqARUFojgwELj/AKg1DegxD6hnAQQsAvZ+T4Efl48vuQFAvBRoMhPovhDo9CFgEA7c/AA4e4bLxMFLBhEsu7XFEmV9lvXGzG5GVcIxyuJ2YGtwJpq0+Bh9XnFjmk/el5GdQTYURzbEyIakZEMisqFIsqErZEPbyIZKC4TEzTC157cYU/9dfN9rGpq9tOFy8dDvD2x7fBfPywrWKxuN5a085Mlk8wFk88lk80Fk87HluMggICAgIFA1UC75U6Ly51tB3G+MLRIz5nqUS6jqxG9mA6Rg0v5/s1gu6WXI/FeznqYiJq7Wi/16PZHJufQCUtlTv2CWxX3SHDmLP/oRqyMRMX3HyWxXQAaXXkgWC/V9zBIKTyaPYuv76DHovcM2RJeUoCTp7Pyc+kwiNmVdF3uxNC6VsWz2aMNgZiMWM7P+G1iwTJkmY36L2zJdsSWbcESlBul+7K+htkwsMmQDNj1Xq68maFuunMVs7Mf0oMf6bYx58fscTza3sYSJLayYhY4ec/7lPsvjvqJOYr+212WSxnOZZw6XxhsZe7qiK5NKmrBPF05gdmJdOseD4nMoyXJjk63FTLfNAuZd9EUOe359PXuvkQETUZ0HbAyikgg+eYnU7UOZlOre44/QorrnBO9nk+tLmEi3DVtQXEgByffYEOkCBsl69u3NwlLUoZLuDmFsgS5jx04ypuCSFQmMnWxK6QaMXfXnEiuAtF2MLSdHsGoqK2648sggY7e+/4tJsIBs1euVtlp5ZLFLJxsyya892e8JL2vrQvjkfRlkQ5fJhhaQDfmr2FAO2dBesqEFZEN3tLHNQjLYvgMmTLSoF1ubon0pbz9k89fI5heSzV8imycddfZQs/kyyHg4gukv0GO9b0W+si/45BUQEBAQKB9V8g5VXiBwdQqwwQH4VQ9YagtsnwAERnEZVFDeSAhZCWytS3mlwOpWwKVzFB1y3+cjB54uBfZ2Bf6wBhbrAkvo3y2jAB8/Lk8hacDF4YD7FvpZInB7OrDOiso2p3N8AETS95VLNi7/tR5X04zR46ct+L6zhdrVchM0aFqH/4Py8sfYsmwvQkVN8Mm2DZjYSH1ZkD5qNXOEJV+NSDyGTfuCgbqTseibtirPI0jRePpifNxcB6mXD8AtvIzL0kZNMW5IK+iyPCQlpJTsu/JQQeXq1BuD9zvqwPufNTiRzCVWBPJguLp7QV6nH8bMGYFelnL4nnDDo1desNaDXec52L77a7SSJOH82k3weukaUD55KXed4fhwQE2I5aEICtLiyjmLIKO6AOj2Arr3L36+SWQJOI8hg80GAtyQvw5U9pAMbSgZ5iQgPL0gXyEpB4F9g4HDZLhZXFppGDYmk9ChtlRZ88dHBm3JjcWWCRthbboCTuPuwFf7Nbilk0V25RcMs4bTMMHiFc+e8cnLFz2yIUeyIZANZarYkMwDi/YNwqA9hcdgjL12/YVlpYmP52F4/vejsDKc2l3hg81uQ1R+NwyfeYeU2AxESSb5laVuveG02hwGi/VgsrIRuh9egjNpJTtNkXUH28+OQvs1VjBaLKV8juhy6GcciiuxQFdjeZVKEen3FYa5fIPDaTG45vkhuqyxIBlMUH3jMPzyNPIFWXmhIJt/TDZvTjbfjmzegGz+Kdl8abooD8GZ69PQb2MNWNBAKF1qg2bnL5UiM6Fp3pzT+MVlKKbf9Udulif+cu8Jx+WG0F9WCx1dN8BL/e6xPAznrk1Bz3W2MPlVHyarmqCX2zKcKW3pbl4ADl0cjy5rbWC8WALJYmNU+6Mpup47BTXr5pdXQEBA4C2gygVUuXdoftUF8NhBoYUd4DgeaNgeyKD50TOat6vznOZbe+bR7xoBTsNozvQIuPwe8PA5l0EJ+f7A7UBUEmBNQVVzCowaNAHijwKug2hupfqMEI1AkWfoXJeB072BM0cAiwGUvz79fhfN7+hcpT2uUWHk3sPJ8+FQGPXAxPfro6KmR/Lg4zh+NweSNhMxraMRl1p+cm5fwI1kEWx7DUIn9ShP0gx9e9SCTq43vO6Vsc5LEYWzHr6QSWqhfafaFVbnCitXpwbGTx0As+eHsHbns/JNqFSQh7jhmJcM9u8MQQerPhjSwwxy72NwDdAskJE6T8C7zhLIAq/gUnDZUmmcVxGLJ0EJUIht4WCvxS5oMjLgaOprWzIe40L3QrPF8NUUIC2nP2lKHn8/3yYhaQ40tgeC9gBHfygOnBRBwIk5wBPKV3ccYMCll0YUBUbK9a/1yJALO5iPDFqSc80LS/fHIj4tC35HbmCLZ0VphRIFQn234HimA8a0HgEbtRWVJeGTVwsY2VAw2ZCIbKimig2xJITF+sAnho5oT3gEnsK5mOdqTapAXtYz+CrzxPghNEvZRumIjOd+l3/4IjCjZMScEbUSQ/8ZiZ8e3kKycXsMcRqPgQ62iAveh3NJKmfIuoDvd/bGNM8ziDbqjtEtxuEdyxw89FuC8TvG4u94lbwayauEIT3JE6efHsP2kwMw6PwJZFgPoaCyGXTij2PJkdnYkVpa9KMZ8mSy+Siy+Xpk84Zk83XI5mPI5lVlVaIIxLZD3TD0/E7cUzRBP6eJGFu/JSyQ8+KFIT555eHwCjqF86H78cWOvvjyUTzqNRiDgRbZuOv9Od6/4FH8rCgLw373XhhywQVPdJ0xiPqhfzU57nvPw7AdM3E0XaUdWCT2uPXB+CvuCNVvj+EtPsKUFiPR08Ya8pyMknLwySsgICDwtsDdqVL6MO6vN0geYxfbMLZAwti+zYzlcsn5ZDOWpbJKLX/JH4m8wJCxo/uUCykKiPie0kWMuezkEjgy4otX/hQSNIexhZT3AP2+CMq3S0rlihlb2oox/xAuPYkxVwfKX5uxZyQLb7glf5L6g9nn333HvlM9ftzB7hUuG0v8hw3WFzFdp3nMS9N1IBqQdWQisxLrsFqzziubsiAtypfd8vRkntxx834wSy5cG6LRkj85i97wDtODLuu6sngpWTFyFramV/6Sul5rwugTtzRPZMCaj/kmv+5zP5/GRrazZ/pGddnAxRdZvFZrU7QtV7Mlf7rtf2X+qefZ7HoSJmn0FbuqXBFV7iV/Mha4qhuT6tizqceVii1nsduHMVORLmu32Le4LUtdxldIFjsy0YqJdWqwj08rDYRHXqJgyZ8ua/ONO7vheYNdPrGTLZnkzMzFYlZtwAb2WL1DNVnyl7S6wAAPHuAS0hm7/yFjS8ig/nqPsa3G9H030vPC36cx5tG2YHmemysZKQnu2bvgs7v7i0ariGDsxjzGzn3N2GHKt1SfsR2/0GlUeo+3DKpotuRPFnyHDbKktqB8Yos9bHOouqDlQP6Qzd+kx3Q3/sTuvMoe+OQtk8Ilf2RD+8mGzpENnSIb2kw2tIRs6DLZ0EuqKEtYwbpQe5sfOsjUFxIXo+GSP/l9qo8+Ey2syUbd8S1ZXl4ySy4aFLKZ57lmJK8p6+RxXemeOdKY15XuzJwcuN3hQyyRS1WlbHllLOBqRyoXTLSkJZv1KJRbjpfNbp9vQenGbMSD4rPxg2z+Otn8QrL5x5zN3yebJ11vd1nF5in9+YORzIrSHY+6sgiV5npxGR+fvEQGjUOLRUy8QIeZbJzNjiRxjoJ8xwerdZjOH7PZBS4pKeBD5rBQypxOnmWxRX2fxfxvDWDV6HzOHsVLoOVpG1k/Klf67zoW8QpT4JNXQEBA4G2hSt2hkl0DHj4A9AcDg6cCulx6PlJKV1+lJgLqLAWGjCu+OG3bkfJRema08vpoMYZWxSt/CqnRoeAWXVY8RZMFSUWIHEgGV6BJbS7BFLBvRPligNQXL2tqjCzoBNYsX47lqseqIyjci0CenIRUOUljagbzCrzanJOcjHSFGBZWllxbyRG6Yxq6duqETtzRZfgK3OF1+40hPS2T/i+GkYlJKXeAxDAxMqB2Z8jMUObjYFnwObQqv+4r12yFq9dziMxtYc4ySUYujzZUVrlKDHvi0xkdoBu4E2sOx5bQLa2Qh8Dt6G3kWfXGoO5KxRbDqv9gdDaS4cExNzzR6IaHCCbGRhCxHGRnq2uwOi/Lm4e7q4ahc6fO6DH4A/zinoY2M/7GKZcZcHyxQ19NrnLBDimuHtVJEQqc7Qu4uwB1VwJTtgLVlItCM+m0hTLQ5x47gfpmZPyfAJfmAhcvAdW/A/oPfdFoWRRwn8q6vhrw8aBylLdFydgTkwq+V8JbBv7o1GmDfdfew+Z1Q+B2ZRSm1qo4Y80M3Yxd0bro5vwRWr3CQ/PJqxlkQ4/Ihq6TDd0iG4oiG9LnbEj75tKYnLB/sDM6F+aOi/BX62Yo4fIlZjArHBTkt7DP/zEUpuMxv2tnmHPJSn1q2/EnjDcTITb4JG5o7atN0LvPEaxrXAsF92mlaO7Qis6Tg7j0BO3uUivI5h+TzRuQzedva082X59sXpds/jHZfKFTYdFw9T6DRElPfNFzGBzK6lc+eYtgEJmOxsbxazHSnLsLLW2HtlY6UKRHIiJfjjSc83HHc50emNO1D4r3ndFHk1ZT0Fsqg1/oJURyOiGWmMCYipIlnMOhqLLbh09eAQEBgbeFChmCK4oMCqZSybva9QGMNJGMnLxZXbVK0ICr/KxQ89LZ3oDHJGBTQ2ClJbCM5m+rZ9K4TANCaa/fEjcHHOtwH5RQoa3dgG8igGblWDGn1/t3PI6NRazqEbkLY7mZg0iiC4ly8MrOQlYFTmAkurrQETEqNosLBnRgO2Au1m/YgA3rf8RgB21mzyLo60vp/wy52dmlBBkKZGVlK4dvyqev7K4CxBZ4d2dEft2fh/rj+uGVGG8bgP3zx2DUottabwJXaeXmo4PGUz/DiGpJOL5uqwbPOZWNcrnfUa88mPcYjN4mBWli2wEY3F4fsgfH4PZUk2kGBbTKQFVkCCPjV03oX5ZXgkbjf8PaVT9hcrtqEOXIYdWuF1qZa+kaJNy6z6xbBQ8t3nwGdCHDGfcVYEBlypVPdVCefCXnEDcBhv0FmMYAV/6kpn4HGPkzGQv3vSri1sBHz8kQ6Zh9Deg7huKpf4A9o4EYrlO0kUELTJo4YvonbTDUqYLe4ZZPAo7eOYAw/UGY1rxuKRcpVOGTV1PIhkaQDX1DNvQF2dBYsiEjsqFLZEOXy2tDr0KBmGhfmqRL0Kpu37KXL2b741GKHBKb9mhf4sobodsWba0lYJmhCMnS9tKHAWqY25dsUx3yzfSPnGln/MrlfkcjyebrkM1LC9LExmTzDmTz0WTziZzNyx/BNyEHOmYt0epVAyGfvCpIbPphsLlK7UT2mD4+CjFf7cI4pd0pnsE3Pg1MdhFfr7eA2W8UzBYeq6fAlRSBZdLYVThG6Y/ED916wSr9GL78pw7q/zMGn1/bC8/UUjSGT14BAQGBt4SKmwdUAHLOn+oa58dKFYbsPs2regBXXYAca6BWP6DBIDqc6Tw8TiShia+RFf3LfdYGka4hLKytYa16WJkob8DlI7aqDltDEeThQQgq9elj7ZA42MNWLEfUs6CiNfLmrUbh41mzMGvGcLSw0EYVxDC3rQYDkQKR4eGlPI8gw7PgCCjERrCvZa2ibCLoGVvl192uVhN0HvU1thyej+7SbHgfOIi7Wte7ssrlsBqBzz9sDPndf7DxSjaXqA1yhB51h1cOBbW6YXDZuBEblcemY4gzoXbKu49jboGvvnIrD4ZfQAqYTh04NlCfVarx0rxi2HV4H3O+Xowd51wwo1YEDn3zFXaEaTkRNbChImmWFbAYiCBjG3UF6DOgwNOwRCAtnZTRlgxJbfqvZ0cTLaVcZJDGzShaedne3/Q7fTJCI8pv3QXotAnoN5QM+zrgfacgi7YyVAHkSXuw9WkSajabgeElbs+8CJ+8mkM2pEc2ZEQ2ZEY21IRsaBzZkA7ZkB/ZkCZxvtYw5MqUz/2IYKRnrOIvXkQhy87fcEEskZYSd+tBT0f5a0X+43JVA7L5x2TzcrJ5Mdm8F9m78rhDNi8lm1eQzQcU2nwWsmTUChJD0FDwCvjkLRuplPrdkBuLWDZylFcbdWqhPQ2WgxqqHsMwutk4jG3YEtXyf6nEEG27nML9DzZhbtNW0I1zx7oLE9BlXRMMvXYdSSX6gU9eAQEBgbeDssas144BzXF0aFBICVIOhRVH8AaaV6VSALUOmHMDGLcPGEPB1YiZVawBlEjboG1zPZr3XcKJyxW335G0VRe0NRMh4/pJnKU5ZUWh37wFGkrkCLlxFSHqky3ZE1y4HAy5QRt0bc/dNXgJOjYOsKMsLDujQu/MVWy5emg36xP0NgrF/o3HkaxtefLQ/OV+OSwPj/Z+h9mzZ3PHJ1h0NAxySr937CiCXjF5zb6zE/sfyKDbog/eecVaH43ymvXCd9/0g2nyaaz883rJFxlripSCIQsJGZYzMOEi4OTIfUEogx7lXaRqrUuu51Uu4zv1IRBrCjTtBcSToR7fq6EToLqY16Q4gDojh7MXbWTgTTZubziOYf334dNt0RW0M5kMD+5vw1V5c0xq06PkcrcX4JO3fOgYkQ1RczJZxdhmaSsCCtCBlbE1WZkCoUlPS7lAU4yYBgsrkklGg8UzdT1RBOBJkgwi/VqopbwjWRVQkM0HKO/wkc37ks2fJHvPP8jmH5PNU/q9x2TzyrqILGAhFUORHYf4EnWTIyottuSFFj55+SC2ha0htZ2oESYMcoELDZjqx+6+41C3RPPqwb72dCwfcxVPvwnBjRHfopdBOE5cnIVVUeq9ySevgICAQNWniow2BUg7AXZSII7mUk9jucQKID2aBnEdwKGrcsjmyAGenK/YwK1C0KmN0eN7wEQRgb0/L8FVlUdDyoXFUEx9txbEcUew8KeTiKmgius4DsOQFrrI89qK1WcSVNpTgeeuy7D1gRyW/SdjdJkTfhme7XfB5TQRzNp0BhVXQVR8ueLaE/D52BpIPvkPjpR40a/myEOPwv12Dgx7LcR5T094qh43juDzlhLk3j0G9zJ240vz2Y4ZH6yBr8IeY+ZOR9MybptqnleMmu9/hQl1GZ5uX4494VrUT9wSaFCPuj8YiFaN3HOBu+uBLD2g8QgVz0PpXh8B3mEUTP0JjN4FNKsO+M0BPB9wecoiBQggQ2YmQM0WBUm8ZeCPPOgevv7yLo6dfYy/ZrlimVcFGFTuBWz29oO0zlR8ZFtGhyrhk7dckA35kg3lkg1VJxvS+qaeGIa6hhT3RiA4+eUPaprW6IpWOjL4+2zEydJeJFyIpCO62RtAFrMf28JU32WhQGLQFuyLk8Oq7gB0rTBfUj7kKWTzkWTzdcjmp5Kdqx4fkc1TH+Y+J5tPJpvXaYyW1oZQpF3HxdjC2+oKJIUuwKSrN0vuMssnLx9E9uhcswF0ZFex84Ev/6WeEnt0bLkEq52bQULBZGBSoWylwCevgICAQBWlSgVU4oZA5wnky0OAw92AMzS/euQO+GwFzk0Gbt7nMvLEugmVKQMezKPDlcpbC+xvAxw59PobQB6wH9/NnImZqsfsn7DvceHkWQd1PlqOn3taIvveCgzuOARfrNqOg0eP4tDuLfj9p6kY/vl+xPGevxmj78I/MaWhGI/+Ho12faZj0d974XrMHQe2H8LtlxUof4KDP8wuKe/MWfjqn/sFV5AlTvjkl0moKwrC1gnv4IPF/+CQ6wFs+uVd9P5oLyIt3sGCX9+DrWpDs0zc2fpZflkzpk3CyO5N0Wa6G+LthuC3X8fDWttOqaxyS2CCvp9NR2tRGJ5FanP9V44w6stbOQboPGYqenXsiI6qR6ehmDKcJha5XnA/Glp0hVkRfgpL58zExx9NwIgeTVC3zVTsCjJFj5/2YN0YuxJ6zCfvCxj1wGezOsMg5Sx+//MG+C9spGClw/eAYSoZbX/AYwsFPAeA8yOBi1cBSwqe2jbj8hJhi+i7s4A5GfiAsWSQ9vQvBT3mGZT/fSBQ5Z0GYf8At7YB/uQUnrgBZB/Y15nSHgO1vqVAzIbLyFMGLRAZG8Kae5aS5cbjwoVE7e8G5KNAbMBmHEq1xNDW76F2mcu3+OTlC9nQPbKh42RD7mRD28mGjpENGZMN9SYb4s6VG7kZX1AeZb45l44imFGcGrUNn+enzcbPvo/V2kMPrWu2gQkLxJbjE7Hw3mEce3wYu++swsagKKpRATpWH2JuizoQJ/+LCdtG4Oubu+D62BV7763Gd64fYc1z7u6FuDYmdnwPdRCAdQf7Yfr1HThC5W27MgX9jmzBM70u+LrrSFgV5NZC3oqEbD6AbF5ONt+UbL4G2bnqUZNsvhHZvJxsPkBp8xYY6DQItgpfrHX/GL/7HMK/Vyajp8tKxFg5w65Ef/PJywc9tG3zGfoZZOCaRz/0ProIm3zdceLpcbj6/osN15dgT3TxnaTciGV4d980/HB9I/71dcWxJ0ew0/MbfH3fH3Jpe3RzKFzUzi+vgICAwFsDt9ufchEG99cbJp2xB7MYW6Xculy5LTp3LLZj7IYPl4fI3zZdzJjrUS6BI+8E/ZbSt9D3hVvFKp4zdrpdwRbp+eXRv6u6MeZ9mLENuoz9u05ld2Zu2/TFg5QbxFYg3LbpynZ+4dCpw2ZfKNzMnCP1Hts6oxurYSBmNCYW5RXpmjPH6YdZApeNL7Kw02zxmBbMUle5RqqwXBET6VmzFu9vYf5F++By26arnFs1v/l7qlsOZzDfHdNZexvdYllFuszKeRJbf0t1i2Fue/OiPGIm0Tdj1R07shGfrmMeEVrtP05oWy6PbdNVd9iWR7Ndo6spt8jkv2267Bn7vYc+Exn0YmtCXjhjPnle85gT9Y9+j9/Zs/SCrdCL6iU1YTZ1nVmfCT+wrdejirYtzofbNl2jvETBtul6rMcfoSXrnujKJjvoMLHFULZVdR9mTbZNz4d+E7qcsTVGKkZMhrZlJhmuilWluVIeSl/kyNhTNY0O/KRg6/NVIxhLUEpOZd5SbqdeWB5nyEvrMXbiH6q7eltqKMMLaLZturL84H9cmK1YuXX6ItZhaZzKttdaIH/KVm83ZJI1n7KL6h2lDp+8GlO4bTrpTv5B+rOYbGgt2dBJsqGUkkqe4T2aGRflVT90WN0THkWvZygiz5dtOdSYmVC/FefVZa0vPiypmzm+bMfxzsx+sWo+EZOu7Md+j1HNmc68737EWi+XMFFRPjEzWTuCLQ0uac+ay1u4bboN+yCgpJ5kPZnKqpO8Ha8G8OtrOdn8drL5X8nmk9T1tIC8SLJ50nf97WTzyiyKMHbkeCtmxrWVaKEZczryD3sQ+gPlU9sKnU/e/G3TwaS7t6psNf8y5Cw+ZAUbvd6c6ZRoL+VhzEZ7F48AeVHLWZ9VBkxcIg/1xZoB7PuAkBL9yyevgICAwNsCzUgKVrSLRCKaceT/WSWQJwJRXkBaJmBgD9g4A0YvPn2sOXIg8RYQEw3oNyhYHVSZC2UqCnlaCO7f8UNEkgz6VtVRt2lLNLIu/xW83LgA3HnwBM9T5DCwqYfmzs1R06Sct3ByouFz8x6CEuUwq9cGnVraK/dSE/ivkHIfQ23dcVxeDd9em4nlHV6x/kuRBETcBDLI+CzIgO0cuC+0RBYHRHsDqQkUMpIzMCFDru5U9rNQvGWQ4/YPm9BlWRx0+g9G+Om2sOa+UUcefAO9Gp3DVYU5Pj0/B2t7au9RciPnoc221ZB2v4ObPZqX6Zv45K16yJGc5AWvmAgkUx+aGzdEy+pNYFNKJXKznuBu5CNE5UlgadIQTtUdYV2ayuVF4WHkPTzLUsDEtAU62NeBidZ3ZqoSMsTFXoNnYgYsq3VGp2oWJXcdLAGfvDxh6QiL9sLDpDhki6Qw1DWHjVlDNLayR4khg6UhNPou/FLikaGQwsq8BdpVr116X/DJKyAgIPAWUGUDKgEBgSpGUUBliRn7x+PLZjT7EenCpo4ZLMpzsaMKIEtKwbPYPDD6z//PfRj7d+JLAioZEoITERgQgUMrL+LPSxmwGjoEN460Rj2tZ7BpOOHeFCP8mmHd7JOYaVbWhQ0+eQUEBAQEBAReB0JA9baSex87F+2HvyYbIkmaYtwvk+H8tkx637a6/Zf7QpXCgEr1CXVdByz1/gg/NH6bJ/YKPFv1LxrPDS/xEL+0tIBKFol5ztvwm6+CYkkDOL/XCxvXtEP74jfLakEGwmJ88VxUEy1tXnVXl09eAQEBAQEBgdeBEFC9rWTuwgjLyTiqyfZL0uHYmeiGSZW5t3JF8rbV7b/cF6pkPMG3Q67iuuomXLrWmLlzKCbVepvX6jBEuZzA++tjSgRUeh26wPX3xigRKynScXW3PwJ0LdC6e220cXjLb80JCAgICAgIlBshoHpryUFaQiqyNdntT6wPU5WXB1d93ra6/Zf7QkBAQEBAQEBAoCyEgEpAQEBAQEBAQEBAQEBLhCeaBQQEBAQEBAQEBAQEtEQIqAQEBAQEBAQEBAQEBLREWPInICAgIFB1yI3HyX+DESrnPivRMUbHsU3gXK7dFN88aQ8D4HIjTflaxCJ0atbB5CHWwo6NAgICAm8xb21AlbIbcN0E1PsN6N6VS3yLUOSmIC46GTITW1S30H8jtwoVOcmIjUkBM6uO6mZVf7eyt03e/yyyNMRExiEDhrC0tYG5/pu50V1Z+lAptpmbhujoVOhY2cHaqMJeufrfRJvt+RVpFK2kAoZ2lLcC2zc3DsjMBPSpXP1XbCXzShl4bM//mkkJnIexV33Qpfd+/FK77C1I+eTVBIWc7C2d7E2P7M1Azd5kp/H97sW4WhSBimBS71cc7dWzHBv7KBDmPROT70ThnXeO4KdaFTiWVIq8Am8DOYE/YOAVTzh1PIw/m1oJy7/+D3lr+zwvAgi/ASQmcglvBdkIPr0CU3s3ho2JBexq10HNauawcxqIz7bfRwqXixfJhzCztROcnEo5WvbHkluqe1wrkSH66jrMfKcxrE0sUZ1kcLCygEPbUfjxSCDUc2tChtsnaFN4zubN0aptZ/QZOQ3z/72JGNVLsUreuLxyPNs8Hs6F5yR5nTv2xuB3p+LbP48jIJ3LpiTnIn7s3gKtxm5EoHo95IHYOLYVWnT/ERfzJ34vltuydTt07TcaH8/fiVux6gVUMvIgbBrvjOYkS8uhq/CwtHdk8eyLdL99mDeqDezNzFG9Tn3Ur1MdlsZGsHL+Dpc02TK+NKqA/hagoW0q4rBvWms4tZ6O/QlcWhnIn1/C6g86oxbJaF+7BmzNrdCg90xs8kqkaV0hlaU7PHSd4GPH2Se/QvvmXF71o3l7fHUym07vj3WjWsGp1Vj8/YIBcSQewez2dK7R6/BIPYvYEJ2ndMZ333XBd3NboJNVKVvzZ3kB7t2AZebAnzXo3+rA/gU069fkpXAvg3omYiOwoyGw3BZYU4f+NQM2DAH8nnB5VNBYBhHMO7TAXGV9vuuMKV0Mq8YAzMKx/9YGeCTboV31VwRIfPKWCdlbINnbDrK3pWRvf5K9rSB720D2dl91LMxFZk4KUpRHZggeRtzArcT4Enf4+MOQleqDG+FeCMzSZGtWPlSGvAJvA/LMAHiGe8IvXdvBUIkMAf7zMe3AXBzKqGjdFKhshCD6tZGM60sGoeOQ7/GvVw6ajZqDH+YvwM9fTUZXQx9s/+MgnmgzB5AnIdTfD4+icmFkZgazEocx9CWqXSxD4C46X9/PsflaOhoMn5Uvw0+fv4fWsmtYu/EMErSwYUVyGPz8HiEy2wBmpqbQVyTA5/R2LP6oBzp/dBCRqmVWAXmzY4Pg5/8EcQrTAnllMXh4didWfTkMbdpPw6EwbvhjqYgI8IP/s1hkqd+8ZVmIfeYPv4AIpHLfqZdrqJONCK9j2LroQ/ToOgvusa/PQcqDj2CXmzeCQ0Pge2Y3DvuWolw8+iLX908M7zEBy07FoM6Qmfhu/mIsmv8j5s6egH7NbaGv7WuoqoA+8LNNGRJC/EjfQ5AoK/tkiriT+KLvYMzd8whmfT7GD7/8iNnD6iHl6mbM7j8SK+8XD7yVpTsa6zrBx45FeoYw5frJKDcKj+h3UblGXL+R/HqkEDoN0KZeFh57u2Pv0ZBSJ5VJZ/Zh/90A5NZvh/rqN3UooOo6ozeWLXsHy5a0R09rNSWTeQMHBgL3HwC1pgE95gH1LICARcDe75VvM9CO+L+APZ8Az6VAq2+BnhQctekPpJ4GjowAQilYLISXDCJYdmuLJcr6LOuNmd2MqsQALIvbga3BmWjS4mP0ecXNGj55Xw7Z2xWyN2qffyPJ3pqQvfUge+tE9qZL9naT7K1Q1yTDsHaGL3xn++LhhC/Qqio0WFm8bfIKVDFy8dDvD2x7fBfPhSj87UO55E+Jyp9vBXG/MbZIzJjrUS6hSiNn8Uc/YnUkIqbvOJntCsjg0gvJYqG+j1mCnPvIh/jNbIAUTNr/bxbLJb0Mmf9q1tNUxMTVerFfryeSVKqksqd+wSQJf1K3D2VS6LEef4QWlZkTvJ9Nri9hIt02bIF3HpdKvHF5ZcxvcVumK7ZkE46o/DrNj+38sDGTinRY9UlHWJIyLcuNTbYWM902C5hqFfLJ82YL2ugysfVk5pZfzEvKTfdjfw21ZWKRIRuw6blaHSoLGXu6oiuTSpqwTxdOYHZiXeb8ywOmXgXN+yKduU+pzsQ61dm7eyIrtg5vXB942qY8iq3vo8eg9w7bEF1WS6Sz83PqM4nYlHVd7MXSuFTGstmjDYOZjVjMzPpvYMEyZVpl6Q4PXSd42XERchazsR/To9/12xjzgow5175ijsq27fUnC36hAsls/3grJpY0Zd/dzOHSiOR7bIh0AYNkPfv2Zn4DlQIVdncIYwt0GTt2kjEFl6xIYOxkU0o3YOyqP5fIB6qjhzP93poxHypLFd/xlC5h7MwNLqE8MsjYre//YhIsIN33eqXuVx5Z7NLJhkzya0/2e8LL2roQPnlfBtlbANnbQtKJtWRvcaXYWwzZW2FbqiBLWMG6LBIx80MHmfqv+CFjAVc7Mt0FNuyDAP4eQ1MqTl6Bt4GMhyOY/gI91vtWecbIDLbvgAkTLerF1qZoX4rAm6FKXj/JCwSuTgE2OAC/6gFLbYHtE4DAKC6DCmIRELIS2FqX8kqB1a2AS+eUN/VVoEj/6VJgb1fgD2tgsS6whP7dMgrw8ePyFJIGXBwOuG+hnyUCt6cD66yobHM6xwdAJH3PG/ljbFm2F6GiJvhk2wZMbKS+VEIftZo5wrJSeyMbl/9aj6tpxujx0xZ839lC7eqoCRo0rVNhD0br1RmODwfUhFgeiqAgbW69vV55YdwUk1bPwyBTBWKvX8SD8ty1V8WoKcYNaQVdloekhJSSellZyIPh6u4FeZ1+GDNnBHpZyuF7wg2PtOkGJYoEBD1LgEJcC86tbd/QVfVK0ofKss3EY9i0LxioOxmLvmkLYy4ZkKLx9MX4uLkOUi8fgFt4GZchK0t3eOh6ee1Yr91IDK6ng5xbx3CixK1qIu0C3D2SIHYcilHOPG93sAhy3hcA3V5A9/7Kmz8FiCwB5zE0MGQDAW75q/cge0gOfSgNAJOAcLV1jikHgX2DgcM0QGQpE+gHuRn5X0GsdstMl3RDpLzzJin4zEcGbcmNxZYJG2FtugJO4+7AV/s1raWTRXrqFwyzhtMwweIVz57xyfsyFGRv1zh7G072Vq0Ue7Mhe1O7Gakpiqw72H52FNqvsYLRYilMVjqiy6GfcSguk8uhgkgXuqIE3Lg9A33W28H4VyPY/DUI3wcEo4SmK8Jx6upUDN3mhNorTCBdpAejFfXRYf93cInldKWyyTmNX1yGYvpdf+RmeeIv955wXG4I/WW10NF1A7zUbVgehnPXpqDnOluY/KoPk1VN0MttGc68ZClsJvmrpW694bTaHAaL9ajdGqH74SU4k1ZSeTVpX1n0BkzZOxijLp5CEpdWTBJOXRyFwS6fYHeSiu/TVF4N26FQhpEeJ8uQYQ52qcrAB3kIzlyfhn4ba8CCJqnSpTZodv7Si0vONdSdxMfzMHzPIAzaMworw8lvKHyw2W0IfVamKY9h+Mxb5S5/VdBJgRd4M3OjMsi9Q+NeF8BjB02h7ADH8UDD9kAGjVvPaH6iznMaB/fMo981ApyGkY98BFx+D3j4nMughGwycDsQRZZlTUFVcwqMGjQB4o8CroNozFN9FoIsIvIMnesycLo3cOYIYDGA8ten3++icZfOpfpAsSbIg4/j+N0cSNpMxLSORlzqayb3Hk6eD4fCqAcmvl8fWg6HmqOIxZMg5STcFg723ASED69bXiWGFjBXrl2ryM1ZFFE46+ELmaQW2neq/VrqIQ9xwzEvGezfGYIOVn0wpIcZ5N7H4BrAf0Kcj7gaGjW0gY7sHrYu3An/N+GvK0kfKss2c25fwI1kEWx7DUIn9ShP0gx9e9SCTq43vO6VEc1Upu5oquvltWO99hg1uC50sm7i2InoErFFuoc7LsTroPHw0WjNd/mYjAaKaGo7W3LSxoXDGJUevpoCpOX0J9Ur/n6+74ekOdDYHgjaAxz9gQucCEUQcGIO8ITy1R0HGCgTSRDHfjSQxAPnZ9I5uKd5Uk8AFw9QMKUsq2VBGh8ZtCTnmheW7o9FfFoW/I7cwBZPLSeApaJAqO8WHM90wJjWI2BTZhDDJ+/LkSeTvUWRvVUne6tRwWNh1gV8v7M3pnmeQbRRd4xuMQ7vWObgod8SjN8xFn/Hq3eEHH6eA9H/9D6EGXfHqMbtYZJyGiuOjMPSKJWpMenJqfsHcCfLHE1qDcH7rd7HAGvgUcBKTN7zCdwyyxMxa4g8HF5Bp3A+dD++2NEXXz6KR70GYzDQIht3vT/H+xc8UBTSsDDsd++FIRdc8ETXGYOcxqN/NTnue8/DsB0zcTS9pLwZUSsx9J+R+OnhLSQbt8cQyj/QwRZxwftwLkmlzTRsX4lVIxjGnYHbrb/hpnYuRbob/r7lhnMplnAy4zwaH3k1bAdJtSYwjj+Lo7f+wiH1oDD9KDbdOopzydSfhTLwQRGIbYe6Yej5nbinaIJ+ThMxtn5LWCDnxYteGumOAnlZz+Ab4wOfGD+EZiltPB2R8crPhYcvAjMKHRdRFXRS4EW4O1VKPeD+eoPkMXaxTcGqin2bGcvlkvPJZixL5b55/pI/EnmBIWNH9ylv4hcQ8T2lixhz2cklcGTEF6/IKCRoDmMLKe8B+n0RlG+XlMoVM7a0FWP+IVx6EmOuDpS/NmPPSBY+ZB2ZyKzEOqzWrPPKahSkRfmyW56ezJM7bt4PZsna3OHllkxJ6g9mn3/3HftO9fhxB7tXuJIm8R82WF/EdJ3mMa/SVu6Ug4KlQrqszTfu7IbnDXb5xE62ZJIzMxeLWbUBG9hj1dUhb1zelyyDIhJPzWD1JWJm9e5elr/YR5slfyID1nzMN/n1mfv5NDaynT3TN6rLBi6+yOJfyx18GQtc1Y1JdezZ1ONKg5Gz2O3DmKlIl7Vb7FtkJ/lo2heE7NkuNr6uHhNBxAzr9GIfrzjCvLVe9qPCG9YH3rap0ZI/OYve8A7TI5voujKoZJvnI2dha3rlL5PrtSaMPlWW7vDQdYKXHRdR9pI/JTlXvmANJSJmMngLe16UIZ0d+8ie6eg6sXnqHarJkr+k1QWO/uABLiGdsfsfMraEHPdf7zG21Zi+70YVLfx9GmMebQuW57m50mBA5/TsXfDZ3V1tcEhm7NrAgvIX12Bs/wjGVlC+32hA8H7K5SF4y6CKZkv+ZMF32CBLagvKJ7bYwzaHlrIWTlvkD9n8TXpMd+NP7M6r9ItP3jLI8id7W0D2dlzF3lLJ3sLJ1rjj5nOyN95L/rKZ57lmTHeBKevkcb1oGauy372udGfmNKDbHT7EEvPTCpf8gYkWN2KTHwZwS4XlLPLhaGZL8jkcPaFyjnQWn5GupttJ7PwJRyZZYM7G+lC/l0KFLvnLID+5WMTEJJvJxtnsSBJnMzRGfbBah+n8MZtd4JKSAj5kDgulzOnkWRZb1I5ZzP/WAFaN9N3Z437x8m/5fepXfSZaWJONuuNbUs68ZJZcNAnj0755zOt8c8przPrdVvq3Qsjv3e7HjBcYsO43Aov8Ii95NW6HPHbfoxXJYMB6eqr6YDmL8BrATBZIWaerj1TSNUXOnj8YSTqsyxyPurIIFaUofckfX93RdMmfdjopULlUqTtUsmvAwweA/mBg8FRAl0vPR0rp6qsDRECdpcCQcSi6emvbkfJRema0Mu4vxtAqP3sJanQouEWXFU/RZEFSESIHksEVaFKbSzAF7BtRvhgglecVx5zkZKQrxLCwsuTklCN0xzR07dQJnbijy/AVuMP31pcKsqATWLN8OZarHquOoHAvAnlyElLlVEtTM5hreXWxbPJwd9UwdO7UGT0Gf4Bf3NPQZsbfOOUyA46lXAR64/IyGWK8z+LUqZM4fngn/vx+DHq8twXBxl3wzbxRsOSy8YZlwefQqvz6rFyzFa5ezyEyt4U5yyQd4PJUJvIQuB29jTyr3hjUXWkwYlj1H4zORjI8OOaGJ6Vc4H5VXyjRqTsRu6+fxR/TuqFa7CVs/nY0nOs3w+CvtuFOYvkr9qb0oXJskyE9LZP+L4aRiUkpd5bEMDEyIH/EkJmhzMdRWbrDS9f52bEm6LUfiUF1dJB+7RhOx3MVybyCo2djIG4yHKNaaXMHW7l0jxRBj3RcEQqc7Qu4uwB1VwJTtgLVlIssM6k6ha1Ln3vsBOqb0SDzCXBpLnDxElD9O6D/ULXBgfJ0WA80b0jqEAE8cqOiKEPdD+j39bg8BG8Z+KNTpw32XXsPm9cNgduVUZhaq+KUPzN0M3ZF66Kb80ev3DyBT96yyMkmeyP9tzBQsbeHZG//kK1xRxcXsje+N+Lkt7DP/zEUpuMxv2tnFL+uzBhtO/6E8WYixAafxI0SY7cRuvY6jC0tGnFLhcWwbzwBfQ0YYqNuFm+MQfmsDNU3EDFHR4emkFD/JmSmlphrVB4MItPR2Dh+LUaaczYjbYe2VjpQpEciIl+INJzzccdznR6Y07UPivdx0UeTVlPQWyqDX+glRHIqmRP2D3ZG58LccRH+at0MJaZYEjOYFU7CeLWvBM4tJ6K9Tgau+h1CSGHjKEJwyO8qMqV9MNmpLtf//OQtQJN2kKB5qw/QRZKNGz57EVAoAwvDYb8ryNDthgnNHUvxza+ARcPV+wwSJT3xRc9hcHilLVSW7lQVnRRQpRyuseLJoGAqlRypXR9SF00kI+Mzq6tWCXIAys8KNYec7Q14TAI20Ri5kmYQy2jMXD2T/AQZammrXsTNAcc63AclVGhrGle/ofG1Gc+VChJdXeiIGLKzsjgl14HtgLlYv2EDNqz/EYMdtJypqKDX+3c8jo1FrOoRuQtjOQ8pkuhConRW2Vkv7lhXIUjQaPxvWLvqJ0xuVw2iHDms2vVCK/PSO/KNy8tScX7BcAwaNBhDx3yAL1ccR5zjZPx50hXftirHG0PEFnh3Z0R+fZ6H+uP64ZUYbxuA/fPHYNSi21pvPKYpyuV+R73yYN5jMHqbFKSJbQdgcHt9yB4cg9vTF2cqr+qLQnSq98DnWy7jaaAn9iz6AJ1NwnDqj2no2f1THIsun/t+U/pQObYpgr6+lP7PkJudXcrApkBWVrZyWkD59JVurIDK0h1eus7PjjVC2gGjBtWBTuoVuJ8peKIh+7o7zj4Xo+mw0WipRTwFCbeOMutWwcOxN58BXchBj/sKMCBZ5colW5QnX2k4xE2AYX9RUB4DXPmTuvodYOTPpHzc94XkUJl7OlPgFQc4bwQ+pCCpvj0QQGVvn0VzQK5HtZFBC0yaOGL6J20w1Kki31eYgKN3DiBMfxCmNS+c3L4MPnnLRqJD9kaany1TsbcGZG+DyN4Gkr2ZaFl6tj8epcghsWmP9iWuxBK6bdHWWgKWGYqQEtukG6Fetfolu19SC7VJBkXmczxXyZoSsxc/H3kHrdfWgM1yC5j/Zgb74yfybZLRf68LiU0/DDZXaSORPaaPj0LMV7swTlkRxTP4xqeByS7i6/UWMCM5i47VU+BKArNM8q35IisQE+1LwYoErer2LXsZJ8/21bGagMl1TZAdcQD7EwvGHHnCfuwPz4G144cYbcJpMi95i3llOxA65u9hSgNzyKL3Y8/zgkhanngQB8KzYVZ/Et411cKa5I/gm5ADHbOWaKXRJLXydKeq6KRAMRXnnysAuVITCF1j5ZSk4pDdp/GuB3CVxsUca6BWP6DBIDqc6Tw8TiShCaqRFf3LfdYUiYM9bMVyRD0LUl6vzMe81Sh8PGsWZs0YjhYW5e8Gka4hLKytYa16WJkUvUxQbFUdtoYiyMODEPTCk5MVgRh2Hd7HnK8XY8c5F8yoFYFD33yFHWGqA1gxb1xekQl6fLsTLi77cMDtNDwDohB6azs+7cTjhXxKn0UKVFKFRNAztsqvj12tJug86mtsOTwf3aXZ8D5wEHcrpe0LkSP0qDu8cmiSohsGl40bsVF5bDqGOBNriPPu45hbIOUqyav6Qh296h3w/s/bccX/FjaNqY1c/834ZpXniw/k8uBN6UPl2KYY5rbVYCBSIDI8vJRHaGR4FhwBhdgI9rWoX7jUStMdXrrOz441Q4oOowahtk4qLh87iyQa8m8cPY1IcVMMG92ctz/Nx8CGRCUDDFgMRJBTH3UF6DNAKT7ZZSIFPenUubbksNUm6HrKF/QqZ4RktcbNKFpRj6aoka99DITQ77ufpABsJlB7PDDBE2jXFIj/B7h8oSCrtjJUAeRJe7D1aRJqNpuB4WoXTtThk/dVSEzI3kRkb0kq9mZH9taO7K0t2ZuWLwlXyLLz/Y9YIn0hPlZGzHo6ynIV+Y+1lQ1NRZV5VK6y5jxfhiHbJ2GJ7x2kGrVAt/oDMLDhIAyobleu4LKikErJZxhyvpJlI0d5lVinFtrTJGcQyVl8DMPoZuMwtmFLVMv/JUOuTPncjwhGesal+IJieLevyAFjWg5ENfldHPLxJY8ng6/vQdxjtTG61cDiO1y85C2bEu2gRGSLka1GojoLwAHv68imkS/A7yC8FDYY0mK4ls8BZiFLRi0mMQQNR6+ksnSnquvk/yvaea9KwoDGHh1S0pQgpWlWHMEbaLxLpQBqHTDnBjBuHzCGgqsRNFa+jgaQtuqCtmYiZFw/ibM0zr4RpG3QtrkejfOXcOKycqlKJWLWC9990w+myaex8s/rRQMnLypbXpEuanR8F+PHj8O7w/ujo6PliwOFyBAG+iKwtBSkqCukIhEJyQqIzSzwqjm3jo0D7PSVY0dGJd0d5JCH5i/3y2F5eLT3O8yePZs7PsGio2GQU/q9Y0cR9OJNKu0wbo4pCz5CC4kMId7eSKpIo1WnkvShsmxTv3kLNJTIEXLjKkLU21v2BBcuB0Nu0AZd23N3OV5CheiOJrpeGhVhxxzSjiMxqLYYyReP40LcTRw9HQGx03CMdtIqnKICKRiyoN+KnSnYuQg4OXJfEDnXgRgKY6u1LrlunEUBpz4EYk2Bpr0oOKIB4fjekoON4ikQ9IjK7UQBVHsukRBRINZtBqVTZ0ZcK/iNNjLwJhu3NxzHsP778Om2aFSM5svw4P42XJU3x6Q2PUou83oBPnlfjdSO7E1K9hZG9qbyjH15EdPkwYq6QkaTh2cv+OoAPEmSQaRfC7WUdw7LIjcQT1PlEJvWAakrkQMPr/XwzLHAwIF34D/1JA7T5MGFju1t22h3MaAyEdvC1pAEFzXChEEFcqofu/uOQ938uunAytiafIECoUlPqadfjjbta+n4IUaaKuDt74J7uXfh4u8DWL+HKXVUtIiXvPwxqf8RxlsCIY924UK2N/b7P4DcdCQ+aGDG5eCJiMZ7qRiK7DgUrl4uQI6otFi1i5Xl053SVk4V8Jbp5P8RWqpp5SClMcxOCsTRGPc0lkusANKjSTkpbHfoqnQhHDnAk/Mlx9JKw2Iopr5bC+K4I1j400nEvJaTqqFTG6PH94CJIgJ7f16Cqy/uJVqBiFHz/a8woS7D0+3LsSdciwq/Vnlfgm4jNG2gC3nwJZzzK3l7IEO5S1AYg6lzB9A8vwxkeLbfBZfTRDBr0xktyjW5Kht56FG4386BYa+FOO/pCU/V48YRfN5Sgty7x+AeXFERFdlW0DPSZzFMbWyLNzqrDCpLHyrJNnUch2EIdXae11asPpOg4mcUeO66DFsfyGHZfzJGl7kI//XpTulUgB0XQs591MBaECVehNv6/TgdKkLzYaPRTNvRX9wSaFCPmjMYiFaNhMlO764HssgoG49QGeEo3esjwDuMgqk/gdG7gGbVAb85gOcDLo8qCaTcavXNVG4HKwL0CtfS8pWBP/Kge/j6y7s4dvYx/prlimVeFaCguRew2dsP0jpT8ZHtKzqAT15NMCB7a0b2lkn25kH2VlEXmCQd0c3eALKY/dgWpvpuEwUSg7ZgX5wcVnUHoGuZNiRHkPc2nMvRQbMGg+GY32/ZiE6Ph1xcG+1r1Sm+ECELwvFn/mUGIW8EkT0612wAHdlV7Hzgq5zmlIlpja5opSODv89GnMwoQ7e0aV+93piivMiQ4I793gfgnihBuxaT4axqDzzl5Y2kA6a0cIZOmjt23NiCg7EMjZw+QDdtfalOY7S0NoQi7TouxhbOCRRICl2ASVdvqu0ArY3uiGGoawgRi0Bw8sse3H3LdPL/CJ0FhPKPhQsXgvvzjaF8fYdBKOB/EQg4SuMXzfvyKLCKvkrjII2BcXWAGjQGKsm8BtzxAGzH05jVqCBNifIC4y0XQL8P4EwBlPKurJzGyweUPymc0g2onHPApRnAtRukvqSzZgOBlu0L8iq31PX+HUimcbLzBLJHZVq50UO9dnUR6X4YZ88ewP7LoUjLTkfi82D4XDsD9+M3ECJpg0mfDkY9vifMuoc9vx9DUHYGYgM8cer4cRwvPE7eRHqDHnCqpvRgYpg3bw7d6wdx2vMCDrp6ISYnB2lxYXh05ypOH9iAZUez8U5/JxjlN4Tm5D5wwcqjQagx4DN80NGsoB31aqFBnge2HbsMf1FvTOtfq6At37i8DHFXtuLvS0loNvZrjGpSRoOLTFBT/AC7XS/B4+xdpErEyIwJwp2TG/Dt1xtwN7c5vtywAoNrKr0zV+7FSGSlRcH36gkcc6PBZ9U8zNtwAyl2Q/H7v4vR3aYcs6sykSP0XzrXyVh0/WY7fh7ZFDVr1ECNwqNmQ1R/7oZ/Lj5ERq2JmKx8j5OmfZFzBb++Pw+H/SMQ9TwKEWHP8MTnFs7uXY6vfnbBE0ULfL7uNwzMbweevHF94GmbLB1eu/7EyeAcZMY/gecpFXmPn4BHjAP6tK4Osdgaze3CcOigBzyOnUVQni4UiYG46jIfs344iBCTvli+6zf0zteHytIdHrpO8LHjXK/N+PrXLXCjOp+5chMPQ1KRkxmHJ56ncPzEeUTZ9kabEs+fSVDdIBC7d12E121fxCqcMOPPH9DbtpQ65UTDZdVjPGGG6PJRW/StUVq9qWzlpg/eB4GnJ2ig0KffBZGj/4Ec+wUKlD8GhnxYfHcobD7g9i/NID8AxlIeqSlQuz4NNnuAxzTg2NNAYmlYMAilHQNC7gPP7tEPaZKZrrxrRQHYWRqEMumcXWmAqKHcyoOnDCVgiLxwF9uuZULcwBFfTbRHqY/m5iXgxObHCMimv+VZyKvnhCldDckatEWBWL/vMedhHAb1+RtTbfL3in8JfPJqCtmbPdnbY7K3ILK3ELI3GdlbGtlbGNnbU7I3MdlbB7I3qmRuJOnZFdKzJ8dxMugqbsWGI1WWhqi4qzj55CRu5TZAD5tqEIvM0NAgBAf9zuHck4sIp0aXZQXB038FPjv3Lx7pdMHPw5air3G+ESMhbBs2BociPTcLMnkyxcN3ceb+L/j86hnEmU7C+iEfo5me0gLEpI77sSMsAEEpClhIUuD/bBvmH5+JZeEpkCjkqNnwC0x2MMm3F43lVTYFH/LIT3oeQ4jFMHzTojW3iUZp6KC6hQS3vd3gEegKj+QMyGQpiEl5Cr/nN3CR9PSJXme04K5+iQ0cYZVyCIdCLuNowD0kMBkyM57hfthJ7L65Ff7mg9FR+bwTr/YthGQxTcGpe4fgQe0XJeqKH4d8inZSVQfNT17N26EQMaqZ5+HavcM4FXofcSJnfDb4Z/TS8PmnF9GHPXywiyap1yLDIJXK8Pjxb5h5aisSrVpCPz0W1g0K9YGf7hQghnHGJWx9cht3IgKQJ9FBWuojeIWcxPWsOmhjqW25Aq8Fbrc/5XUi7q83TDpjD2Yxtkq5dTmJVHgstmPshg+Xh8jfNl3MmOtRLoEj7wT9ltK30PeFW0oqnjN2ul3BFun55dG/q7ox5n2YsQ26jP27TmXXXG7b9MWDlBt3ViyysNNs8ZgWzFJXlN/eBYeIifSsWYv3tzD/or1BecBtO11cnsqhU4fNvqC2x3vqPbZ1RjdWw0DMyNiK8op0zZnj9MNFWyjzoWC7ZT3W44/Qktt4JrqyyQ46TGwxlG0t3F/0jcv78q2kS0Uewy4uGcYaGqueX8T0a/Zic488Y8U7i3PlFuYRiZlE34xVd+zIRny6jnlEqOxBXhnInrHfe+gzkUEvtiak9O1W87zmMSfSPf0ev7Nnyv1iNe2LnBtsQRdbpi9W1Vs6RLrM0mkkW3AyTIvtZzmqgP4q0dg2C7dNVzm3an7z91S3SM5gvjums/Y2usWyUptZOU9i628VbzxcebrDT9f52HHG3tHMWLnrRqHMqofImI3eW8pG0dkebE5dHcojYrptFjKfl/k7TbZNz4dkCV3O2BojlcGCHPqWmTRAqNQ3zZXyUPoiR8aeqmlI4CcFW5+vGsFYAieQ7CljJ2mAWFw4YHCDxrLmjF27pLbFuoYyvIBm26Yryw/+x4XZipVbpy9iHZbGaW9rSuRP2erthkyy5lN28VXjDZ+8PJElk73tJ3ujtge1WcFB9raI7O0Q2RungBnepGdF36sfOqzuCY+i7deVkwfvux+x1sslTFSUR8xM1o5gS4NVt/SXsyifj5nzSgMmLlGelNn/M4ftji3Zb/K04+yrzZZMUpRPj9lv+5zt9f+WtVhUcptsfvLyIH+7cDDp7q0qW5a/DDmLD1nBRq83ZzovyEC26a1mmzm+bMfxzsye9L04n4hJV/Zjv8eodrym7auCIpT9tdOY8ouZ9cF9L/HPPOTl1Q6FxDOXA9Wor0XM6N+1LLhUQXmgCGNHjrdiZlSeUkbRQjPmdOQf9iD0B+akpg98dKeIPF+25VBjZsKVX3DostYXHxZtH69VuQKVDo0SBSs1RSIaHV++aPO1I08EoryAtEzAwB6wcQaMiu5taoEcSLwFxEQD+g2Ami0q6u4Tf3LjAnDnwRM8T5HDwKYemjs3R83CXW9eE/K0ENy/44eIJBn0raqjbtOWaGT9sm0I3jxvWl5ZUiDu3PZFRBpgbN8E7ds3guWbUqA3ggKZzwPw0C8Iz5OyyYgs4eDYAq0aWb9084rKpLL0oVJsMycaPjfvIShRDrN6bdCppb0GV1b/j0m5j6G27jgur4Zvr83E8g6qd7pKQZEERNwEMsjJW9BAYefAfVFOMh8DpPPIUdDg0xBwcHr5oMFbBjlu/7AJXZbFQaf/YISfbgtr7ht15ME30KvROVxVmOPT83Owtqf2jic3ch7abFsNafc7uNmj7A1B+OTVltwMsrdosrccsjcjsjc7sjdpOe0tLwoPI+/hWZYCJqYt0MG+DkxE3HeqsDSExfogMDUWyXJ92FZrh3bVrIqXUKmiSEZg5A34pMtgbtkenW3t3ojf4wVLR1i0Fx4mxSFbJIWhrjlszBqisZU9SnNpuVlPcDfyEaLyJLA0aQin6o6wLs30NG1fvvCUV2NYJP5xaY6Pn0owepQv9jW34X+H8AVkiIu9Bs/EDFhW64xO1SyU96tLRyvdkSM5yQteMRFIZnowN26IltWbwEbVCN9GnfyPU2UDKgEBAQGB/0OKAipLzNg/Hl82o9maSBc2dcxgUZ6LalUAWVIKnsXmQbmtsf+f+zD278SXBFQyJAQnIjAgAodWXsSflzJgNXQIbhxpjXqviC9fThpOuDfFCL9mWDf7JGaalTWt5JNXQKCqokDs4xnocuAfRNj8hCtTF6FdZVwZEBAghICqKpF7HzsX7Ye/Jk8VSppi3C+T4VzRE4yqIAMf/svyioxghAxkaGKWQl8U8LbpAx/+y3VTpTCgUn1CXdcBS70/wg+N3+aJvQLPVv2LxnPDSzy8Li0toJJFYp7zNvzmq6BY0gDO7/XCxjXt0L74japakIGwGF88F9VES5tX3SXlk1dAoGqRk+6PB4nPER65D8uubMM9WQvMnXgFy2tzG8oICFQCQkBVlcjchRGWk3FUk61upMOxM9ENk8q7j606VUEGPvyX5dVrjda4h3slNxgsHaEvCnjb9IEP/+W6qZLxBN8OuYrrqnqva42ZO4diUq2KWFv0pmCIcjmB99fHQDWg0uvQBa6/Ny5+N48SRTqu7vZHgK4FWnevjTYOb2NkLCDwJpDj2Y2eaHzuGtmZ8t1+XTFn0E6saFLnjT3mIfD/gRBQVSlykJaQimxNdsYV68O0jJevak9VkIEP/2V5lS8NZmBCX/DgbdMHPvyX6yYgICBQMaRFu8ElMgmmJs3QuU571BKuRwi8BoSASkBAQEBAQEBAQEBAQEuEJ00FBAQEBAQEBAQEBAS0RAioBAQEBAQEBAQEBAQEtEQIqAQEBAQEBAQEBAQEBLREeIZKQOA/jCxXBomesLfRK8mNx8l/gxEq5z4r0TFGx7FN4FyurarfPGkPA+ByI035bvMidGrWweQh1sJ22AL/WWRy8n06gu8TEBB4Pby1AVXKbsB1E1DvN6B7Vy7xP4oiJxmxMSlgZtVR3azitqtR5KYgLjoZMhNbVLfQr5jblblpiI5OhY6VHayNtH4DpUC5ScPleb0wYlUQGnzrjou/doMx983rJDctBjFJDKZ2dqhA1a14tHn3kSKNmjkVMLSjvG9I13PjgMxMQJ9k0C9tTz8e7z56zaQEzsPYqz7o0ns/fqld9v7ufPJqgkJOvi+dfJ8e+T4DNd8nO43vdy/G1aIIVASTer/iaK+e5dg1UYEw75mYfCcK77xzBD9V5LZjlSJvZcGzHbSqG/m+C+T7bpDv60K+r/fr832yqNUYd8Ydxi02Y1ubRhBGQIHSyAn8AQOveMKp42H82dRKWCr2H+Gt7ce8CCD8BpCYyCVUdZIPYWZrJzg5lXK07I8lt9RfNiRD9NV1mPlOY1ibWKJ67TpwsLKAQ9tR+PFIIDR5NVHpZCP49ApM7d0YNiYWsKNya1Yzh53TQHy2/T5SuFxQxGHftNZwaj0d+xO4tDKQP7+E1R90Ri2S0b52DdiaW6FB75nY5JVIQ2ghcjzbPB7OhfVu3hwtW7dD136j8fH8nbgVq3oNnQ8vluvcsTcGvzsV3/55HAHpXDYlORfxY/cWaDV2IwLVTycPxMaxrdCi+4+4mD+xrix5XwOyYFw8443kvGQ8POWBYE1eBvtKZAg4NB/T3p2LQ7Fl7d2djaBji/BehxqwMK+OWrXtUc2mId750gUB2VyW14Km8qogNkTnKZ3x3Xdd8N3cFuhkVcp7j7K8APduwDJz4M8a9G91YP8CmvVXSCMTpFfeU4ENTnR0AgLVXzxFdYnYCOxoCCy3BdbUoX/NKO8QwO8Jl6cQEcw7tMBcZX2+64wpXQyrhtNn4dh/awM8ku3QrvorAiQ+ecuEfF8g+b4d5PuWku/7k3zfCvJ9G8j33VfxfeRdM3NSkKI8MkPwMOIGbiXGl7jDxx+GrFQf3Aj3QmCWhrqoMZUhb2XBtx20qJuCfF8g+T4F+b6n5PsqurnLQJ7zDPfCPfEgJZNqKvB2QeOFP40XB2i8yKhcpZFnBsCT9MQvXZOXCr6M1yfv66ey6la5bSYExq8LeRJC/f3wKCoXRmZmMCtxGENfotoVMgTumoyufT/H5mvpaDB8Fn6YvwA/ff4eWsuuYe3GM0jQSheScX3JIHQc8j3+9cpBs1Fz8sv9+Ss6l6EPtv9xEE+K5oQyJIT4wc8vBImysk+miDuJL/oOxtw9j2DW52P88MuPmD2sHlKubsbs/iOx8n6x08iODYKf/xPEKUxhZmoKQ51sRHgdw9ZFH6JH11lw13Tiq4Z6ufqyGDw8uxOrvhyGNu2n4VAYNwSzVEQE+MH/WSyy1Ec8loXYZ/7wC4hAKvddZclb6UiaYer8bzFmwLv4fuE0NKuQlS+5eHjgD2xzv4vnqrc71Ehyn4PeoxbiWJwjRn/+MxbMm4F+tjG4uOYDDP/mnMrEtbLRTN4SUEDVdUZvLFv2DpYtaY+e1moBlcwbODAQuP8AqDUN6DEPqGcBBCwC9n6vfFVU+Ul1Ac7tAOIfAXEBVKba9DH+L2DPJ8BzKdDqW6AnBXNt+tPvTgNHRgChqlGrCJbd2mKJsj7LemNmN6Mq4fRlcTuwNTgTTVp8jD6vuknBI+/LId93hXwf9dG/keT7mpDv60G+rxP5Pl3yfTfJ9xWasmQY1s7whe9sXzyc8AVaVfVR8m2Tlw/a1E1Mvq8n+b765Pt6ke/7L7WHQCVC44UfjRePabyomlcj1Hjb5OVDZdWtcttMcDWvGd32X+P49eu4rnpcOYyv2xTPeOWP1mL6J/sQbNITiz184HnwLyxdMB+LVm/FsQdBuL9mMCx495wCCe5fY+KCS0itPwk77vjhssu6/HIXrtyMI7cD4efyIerzLjcDFxd+hr8fSdBlwTl4um3AkoW/Yv1hT1xdOwjVUq7htx+2IURVeUUm6LvEI7/unl4+CIl4gPVDbZAXuAcb3WJV7mjxRLVcql9E5EPs+LAR5AH/4rOf3GlKpSWVJW+looOaw37FwVMHsGiIw2s1dIt+X+LX33bgpo8Hdv6+EPOXbMSxSxswykaOp3v+xrEkLuNbB/W0949ASCoFMAeACZsomFkCvO8JtG8CxG4AvCgIKg/sOQVTFJhltwKcnLlEVWSAz3b63goYcgUYuoyCuvn091H6+10S8Snw+D6Xt6qSjet3d+K+qAumOLdG2TESn7wvg3zfY/J9l8j3WZDv+5h83xjyfT3J9/Uj3zedfN9o8n2l3IwUeBsh39eIfN9E8n2Or9f3CQgI/P9SJX1NXiBwdQqwwQH4lUbQpbbA9glAYBSXQQUxDYIhK4GtdSmvFFhN85BL55QLC1SgyfzTpcDersAf1sBiXWAJ/btlFM1N/Lg8haQBF4cD7lvoZ4nA7enAOpq7/GpO5/gAiKTvK5dsXP5rPa6mGaPHT1vwfWcLtU4yQYOmdfg/TC5/jC3L9iJU1ASfbNuAiY3Ul87oo1YzR1jy1YjEY9i0LxioOxmLvmmrslZdisbTF+Pj5jpIvXwAbuFlXA4waopxQ1pBl+UhKSGl4pZKGDfFpNXzMMhUgdjrF/GgIu4eKCm3vApEHvwKw4Z9jYORCfDaNAvvNLWDib4RbJoOwvduwcppcwkUiXew/ZtRaF/PCkZSKUxsHdFl/M849CiTy8GR44FFIwZh0KDCYzDGLr+OF5eIFsrwDQ5HxeDaHx+iSz0LGEhNUL3FMPxyMrJoWU3isXkYnl/WKKy8kU1zeh9s/mCIyjmG4bM9IcXLcPSdMOmbiXAy4j4T4uoD0beVLlhGCIIiStZO47pxZAYew9IpveHkYA4DPT3K3wjdJyzBmaiC0Ja3vJrCIshhXAB0ewHd+ytv/hQgsgScx1Al6VwBbsqmpXM+JCcylJzOJCBcdc0pkXIQ2DcYOExOKYtLy4d+GPAD4EeOp/M6wIYc1QtQntyMgj/Fak9o6JJNi0io8j6InxuLLRM2wtp0BZzG3YGv9uuLSyeLfIZfMMwaTsMEi1c8ZcIn78tQkO+7xvm+4eT7qpXi+2zI92kZUCmySH/Pkv6uIf1dTPq7kvT3EOlvXCn6K9KFrigBN27PQJ/1djD+lWz+L7L5ADWbV4Tj1NWpGLrNCbVXmEC6SA9GK+qjw/7v4BLL9X+lQv7Bj/yDC/moVPJRd8hH/UU+qlR5ubx738fvESWVJTdyDSbuHYav/CLzzaIITduBDzLyffvIvvcUHuT7rpXm+4rJpPFrqRv5ktXkSxaTL1lJvuQw+ZK0EtKWk1w88f4So0ieMecO4plq0fIwnLs2BT3X2VLb6sNkVRP0cluGMyrLh2XRGzBl72CM9DiJF69FJeHUxVEY7DIHu5J4e7QiNG0HzXS9UHdobEmjscWTxpY1NLYsprFlI40tT4vHlsK6jbp4qoy6fYLdqnXToM3yyTmNX1yGYvpdf+RmeeIv955wXG4I/WW10NF1A7y4+UDiYxov8vWFxotw8uEKGi/caLwo0iMaL7zVxgtNZVAiD8GZ69PQb2MNWNCEVrrUBs3OXypTL8tCG3l5+Sge8C33VXpWWX2hVblaUOUCqtw7NAfpAnjsoNDCDnAcDzRsD2TQPOYZzdvVeU5zkj3z6HeNAKdh5KcfAZffAx4+5zIooXYN3A5EkcVaU1DVnAKjBk2A+KOA6yCaw6g+I0RaHnmGznUZON0bOHMEsBhA+evT73fRHIjOpenqIa3IvYeT58OhMOqBie/Xr7CHWuXBx3H8bg4kbSZiWkeVmW45ybl9ATeSRbDtNQid1KM8STP07VELOrne8LpXRjSjiMJZD1/IJLXQvlPtin2Q19AC5vo0U6rIDVfKLS9DepAnTp86ht1zh6DfJzTZs+2OkSPawyTsNFZMHIeld1XcbdIFfN+3N6b9fgbRlG/0hHF4p0EOHh5YgvG9xuLvxypOXJ6EMF8f+PjQ8dATHqdP4RwZw4tuvliG7Z8OwKDvTiCj6RAKFJtB5/FxLJk0GzsilU5OgbyEZ/BVlufjh1DlwMbSERnAnSP/8EVgbInI4EUUaUjPVNB83xRmZipuh0/diIw7KzG0y0j8tOMWku3aY8j48RjY3hZxF/bhXP6DYhUkb2nIyDlFkx7bkmMwLqwDtVH4agqQltOfpGPx9/P9DSTNgcb2QNAe4CgFSYWnUwQBJ+YATyhf3XGAAZeuJPMEcHYvlf8l0JWcXqnokVPsR44uHjg/k+ThFlCm0m8vHqBgSnnelgVpWpJzzQtL98ciPi0LfkduYItneYcZVRQI9d2C45kOGNN6BGzKDGL45H058mTyfVHk+6qT76tRcb4vnyzS352kv56kv0akvy1Ify1Jf/1If3eQ/sarW54cfp4D0f/0PoQZd8eoxmTzKWTzR8jmo1RsnvTk1P0DuJNljia1huD9Vu9jgDXwKGAlJu/5BG5kS5UL+Yck8g9PyUedIx91knwU1W9kqfIW5r0Ab7XnEhSZPvB4ehqeSelqF540bAc+MPJ9sWTfMXREk+8LJN8XU5rvKyAjinzJP+RLHpIvMSZf4kS+xIF8STD5kqSX/YovFEw9/BCDjq7FubQ6mNh+FOoVug4Whv3uvTDkggue6DpjEJ2/fzU57nvPw7AdM3E0vaAtJdWawDj+LI7e+guH1AOc9KPYdOsoziWTnphpN3Jq3A4a63qx7mw/SWPLeRpbrGlscaSxJZ7GliM0tqRydbNqBMO4M3C79TfcuPoWokh3w9+33HAuxRJOhXXTsM3ykYfDK+gUzofuxxc7+uLLR/Go12AMBlpk467353j/ggcyleNFFo0XSp2JofEiS+nraLyI5/Qo/6DxIkNlvOAjgyIQ2w51w9DzO3FP0QT9nCZibP2WsECOmj1oihby8vZRGsKz3FfrWWX1hRblaotylz8lKn++OfIYu9iGsQUSxvZtZiyXS84nm7GsDO5vIu43xhaRyAsMGTu6jzEZlx7xPaWLGHPZySVwZMQzpuD+LiRoDmMLKe8B+n0RlG+XlMoVM7a0FWP+IVx6EmOuDpS/NmPPSBbexG9mA6RgkvqD2efffce+Uz1+3MHu5XD5Ev9hg/VFTNdpHvOi9qgoso5MZFZiHVZr1nllUxakRfmyW56ezJM7bt4PZsly7kt5FFvfR49B7x22IbowUR05i97wDtODLuu6MqioD4qRs7A1veh7PdZrTRh9kjG/xW2ZrsiANR/zTX7d534+jY1sZ8/0jeqygYsvsviXnapMuHLFlmzCkSwurYDEUzNYfYmYWb27lyUoE7Lc2GRrMdNts4B5q7dvnjdb0EaXia0nM7f8YipP3oDfOjJdsjmRfiM2eVcAK5BaziJ3jWa21E8OU0+wAnXPZp7fNaO6mbJOv1xXqiFHGvNa0p2Zi8XMbsIhlsilqiILXMG66IqY+XsHubJUUZHBuCWb5RqqND8im92e14LqbMxG7Cg+WwEZbN+7Jkyk14utjeBX8Ty/31hnQxGTtlvMfIranWfd8u6z+W30mUhSk43a7FuyTtnJLPmFSvKQN/keGyJdwCBZz769+aIm55O0usC5HDzAJaQzdv9DxpaQs/jrPca2GtP33UjpCn+fxphHW3Imuoy5uZIDoop79i747O6u5pColscbMra4BWOhVC71D7vakfKaM+arXrFkxq4NLJBlcQ3G9o9gbAWV+Rs5LO+nXJ7SkLFb3//FJFjApP29WCyXqo4s+A4bZEltQfnEFnvY5lB1z1kO5A/Z/E16THfjT+zOq1SIT94yyPIn37eAfN9xFd+XSr4vnPwed9x8Tr6vlGrKEsiGqJ3ND5VmQ6S/50h/F5D+eqjp7xXSXxpE7A4X6i/ZG/Wn7gKyt8Vk8w9VbP4h2TzJ53C00OaVpLP4jHT6VpUkdv6EI5OQToz1UerIi5QtLx/4yFuY14Z9EFDS/2Y9mcqqk753vBqg1GiCbzsUw6dur8wrJ1+yiXzJQvIld9R8SR75khKTD83Jfjab1Vmoy1pcuEf+NIc9fvAeq79IzMw2fc1Opan1ZsCHzGGhlDmdPMtii3Qvi/nfGsCqUZs5e9znfHIeu+/RitrMgPX0VB1n5SzCawAzWSBlna4+UknngcbtoKWuL6Gx5ZHK2HKexpYFNLY8KCwhj3mdb56f1u+2co5QCM0dbvdjxlTn7jcCi+qmeZsRGTTnWixiYtIpk42z2ZEk7huaA3ywWofp/DGbXSjKrITGiwM0Xiyi8SLl5Q5Hcxnk7PmDkeR7dJnjUVemOgRlPBzB9Bfosd63IlXqzBdN5OXTb3zgWS5ve6vovihEs3K1pUrdoZJdAx4+APQHA4OnAiUWvEgpXX2lhgiosxQYMk65aroA246Uj9Izo5VxaTGGVvnZS1CjQ8Etuqx4mlUWJBUhciAZXIEmtbkEU8C+EeWLAVK1DOiVyIJOYM3y5Viueqw6Al+uTHlyElLlJI2pGcy1vCJbGjnJyUhXiGFhZcm1lRyhO6aha6dO6MQdXYavwB1et98Y0tOUuxmJYWRiUsqdGjFMjAyo3RkyM1R2PWJZ8Dm0Kr/uK9dshavXc4jMbWHOMklGLo82MBlivM/i1KmTOH54J/78fgx6vLcFwcZd8M28UbDksvGmsuQVGaHrwsPYMrERt4RTDPuRE9DXkiH2zs2CDUJyb2Hf4cdQ1BiP+d91RvErkYzR9oufML6mCLEeJ6Fc2aYVIhP0XnoE60bUQsFCMSmat29FupeDuJiEct8CzyfjDpbPXI6bubUx4adZaFq4Io1n3XKu/YOdD3JhPngR/praDCXcgdQMZur+oaLJVS7dI6PUoxMpQoGzfQF3F6DuSmDKVqCacsFrJpBXqOn0ucdOoL4ZObZPgEtzgYuXgOrfAf2HlnRIwQuAe2FA+/VArVfdRaHyOlC+5g3JjCOAR250Wiqs7gd0rnpcHu3RqdMG+669h83rhsDtyihMrVVxjigzdDN2Reuim/NHr9xggE/essjJJt9HtmVhoOL7HpLv+4f8Hnd0cSHfx1fZ5aS//qS/pqS/XdX0tyPprxnpbzDpb4nxgmy+F9l8CxWbb0w2b0A2H0U2X+RPjGBlqL6BiDk6OjQlO81EQmZqifGt8tBUXr5UVrmakRNGviSafIkj+ZLWar5EQr6ktNW2vODuTLnvR6L9PLhOWIEBRXe1laThnI87nuv0wJyufVC8940+mrSagt5SGfxCLyEy35VI0LzVB+giycYNn70IKGwbFobDfleQodsNE5o7arFSgkc7aKXrNLb0obGlscrY4kBjC2hsSS8cWyRwbjkR7XUycNXvEEIK66YIwSG/q8iU9sFkp7pc3fi0WSEMItPR2Dh+LUaacwOPtB3aWulAkR6JCN56xkMGFg1X7zNIlPTEFz2HwaEcPkxrtOo3DeBZbuXYmzb6ULm8iS5+KRkUTKWSldn1IXeriWTUgGZ11SpBHaP8rFAbHLO9AY9JwCaag6ykmfUympOsnkl6QY1d2mowcXPAsQ73QQkV2prmLd/Q/KVZOVaN6PX+HY9jYxGrekTuwlhOw0QSXUiUipGd9eIudOVAoqsLHRGjYrO4gVgHtgPmYv2GDdiw/kcMdtDGHYugry/ND5hys7NLGeAVyMrKVro0yqdfPH8UW+DdnRH5dX8e6o/rh1divG0A9s8fg1GLbmu/URpLxfkFw6F8bmjomA/w5YrjiHOcjD9PuuLbVuV4I0tlyUsBVb3G9Us+aC+thdr25OzjnxfsQpPsj0dhckic2qN9CS9EGLZF22YSsIRQhCTxHhkKEBmgRm37koMx6Ypy6JHL+XrZUsh9gh1TxmDhdRmcv/4Xq4epvHODV90UiHngi0i5BK369IWNJv6hopFwa1qzbhU8kHnzGdCFnMK4rwADEkiuXKpEefINmEPcBBj2F2AaA1z5k8zuHWDkz/kr94rIvQKc2gRYzqYArBuXWAY5dP49nSlIiwOcNwIfUlBX3x4IIDm2z6JxRktdUMGkiSOmf9IGQ50q6P10+STg6J0DCNMfhGnNCydJL4NP3rKR6JDvIy+ULVPxfQ3I9w0i3zeQfJ+JlqVnk/6mkP7akP6qTwh0SX+tSX8zSX9LbA9ONl9NzeYlZPMkgyKTbF4la0rMXvx85B20XlsDNsstYP6bGeyPn8j3N4z+ez1oLi8/KqtcTSBfEk2+hJEvqUu+RMVcKwaGlOC5GOy+D5E23+Do+wvRS31Co3gG3/g0MNlFfL3eAmbUt0XH6ilwpU5mmTQ34LpZx/w9TGlgDln0fux5XuCX5YkHcSA8G2b1J+FdU22slEc7aKXrNLaYq40tZIv5YwsrHlt0rCZgcl0TZEccwP7EgombPGE/9ofnwNrxQ4w24erGs80Kkdj0w2BzFSlE9pg+PgoxX+3CuBIKqAF8ZJA/gm9CDnTMWqKVRhPaSkCrftMAXuVWkr1pqQ+VyRvq5dKRK0cKQtdYOVWvOGT3af7TA7hK844ca6BWP6DBIDqc6Tw8TiQxoWHAiv7lPmuDSNcQFtbWsFY9rEyKXlIotqoOW0MR5OFBCNJyKXlpSBzsYSuWI+pZkPIaej7mrUbh41mzMGvGcLTgv20gIYa5bTUYiBSIDA8vZa26DM+CI6AQG8G+lrWKsomgZ2yVX3e7Wk3QedTX2HJ4PrpLs+F94CBUHx/ihcgEPb7dCReXfTjgdhqeAVEIvbUdn3bi8eI8pfGRUpRUi0qSt1RIAKUMFOUr/1FQoKosXiyVlpx85KMHPT1lzRRQVOoEREtkwdg3fShmHI5Dw6k74Lqkh8qVLL51o6A9R7nuXAQjY+M347gMbEhY6pWAxUAEOZJRFAj1GaA0AxIvkQKZdDI0W3ISahN0PeVLd5WjDmmVcTOKVlRrS1bj+Q0QR16lJgVF3hQgeSkPCrCiKGBStlDwPwWfI5UPe9Lnax8DIXSu7icpWJsJ1B4PTPAE2jUF4inv5Qv5JVc15El7sPVpEmo2m4Hh6gG0GnzyvgqJCfk+Efm+JBXfZ0e+rx35vrbk+/S10yaFjNNfyUv0V4fTX6UhlwnZOmfzheQ8X4Yh2ydhie8dpBq1QLf6AzCw4SAMqG5XruCyYuDk5HxUxfFiO1QO5EtknC/RqwxfIoJp9eEYVM0AufEnsDcshrRADZaNHOXVXJ1aaE+TkUHUt8XHMIxuNg5jG7ZENS47RLYY2WokqrMAHPC+jmzIEeB3EF4KGwxpMVzLSarm7VBxul4KIgeMaTkQ1eR3ccjHlzyiDL6+B3GP1cboVgOLxwy+bVYGUimN54bF8y6N4SVDFrJk1LoSQ9CU7o1QWf3Gr9xKsrcK1IeKosLqVhEY0FxEhxQvJUjZFRVH8Aaa/6RSALUOmHMDGLcPGEPB1Qiai1SpBlAibYO2zfVofnYJJy6r7Q5WDqStuqCtmQgZ10/ibAW+DFm/eQs0lMgRcuNqya3Rlcie4MLlYMgN2qBre+7q/kvQsXGAHWVh2Rna35kT6aJGx3cxfvw4vDu8Pzo6Wr5o7CJDGOiLwNJSkKKuZIpEJCQrIDazeOW29BUib2lkBOFphBxi+9qoTXNssaUtrOg8srAgPFOPWGUBeEKJIvNaqKVVQKw97FUGKg/D4VmD8dHuCDSYtgunNo5CTbWZIL+66cDK1hp6FLyHBj0tJXgvm1fKqwlSCoYslJ3iTAHMRcDJkfuCyLkOxJBU1VqjxFplFgWc+hCINQWa9qKAh5zQ8b0qDo6MJkW5fWkGcH8ucHI2d8wBHpEjVIYAdz+jz58Cj8Pod0+BoEckQycKoFQ2rhBR0NZtBqVTeRHXyulAs3F7w3EM678Pn26LRsV4IRke3N+Gq/LmmNSmR8klHy/AJ++rkdqR75OS7wsj31cBzx0XIqYBy4rUQUYDVomd25QoSH+TSH/1SX+Vdy/LIjcQT1PJ5k3roHZ+1hx4eK2HZ44FBg68A/+pJ3GYBiwXOra3bVOuC3oVQi75KKW8JuSjuKoVXILiAiIV5PJczZcNv9AOlQX5EmPyJWQkoUn8fYkmiPR7YuXYtRhu8BibXUfil9CkkiYptoWtIVVS1AgTBhX0rfqxu+841FVpB5P6H2G8JRDyaBcuZHtjv/8DyE1H4oMGZlwOvmjeDhWm6y/B0vFDjDRVwNvfBfdy78LF3wewfg9T6qhYvxZtpi0vjen5yCCieYRUDEV2HOJLtJkcUWmxmtuFBrxM3srqN37lls/eKqQvSqEyrtvwa8VKRkpzBDspEEfzjaexXGIFkB5NjUeTOYeuyq7lyAGenC/nvKMy0KmN0eN7wEQRgb0/L8HVinpnj8VQTH23FsRxR7Dwp5OIqaCK6zgOw5AWusjz2orVZxJU2lOB567LsPWBHJb9J2N0mQuIZXi23wWX00Qwa9MZVFzlodsITRvoQh58Cef8lNdYislQ7pYUxmDq3AEU05ZBZckrQ+Du7TiXooMmAwahkVJZDTqiWxsDyLz3Y9t11T37FUg8twX7/OWw6jUAXcs769QIMQyNDCEi3QwOKeNhO0UUjn02BB9sC0U9CqZObhiFWqVdVudZN9NOXdFKKoP/3o04qdELlTWUV1PELYEG9Ui8YCBa9aoE6dHd9UAWKU3jESpeldK9PgK8KRBq+icwehfQrDrgR8GS5wMuDylPt2PAVE+1gwK09i3oexOgzxX6fBVo26jgJ/kkkGNTa4NM5R0smtjq0W/KgTzoHr7+8i6OnX2Mv2a5YplXBTiL3AvY7O0HaZ2p+Mj2FSEBn7yaYEC+rxn5vkzyfR7k+ypqIJWQ/tqT/saQ/oap6W8Q6W8c6W9d0t8y/YMcQd7bcC5HB80aDIZjvu5kIzo9HnJxbbSvVaf4opAsCMef+fOekFQs5KO8yUdlk49qQD4qX14RTKXK571SEZ4SVzQGKNKO41uPQ1DeZ301pbVD5WFag3yJDvkSH/IlajsTVgxi6FlNxY53f0QHeGHZgXH487nKdvcie3Su2QA6sqvY+cBXs2Xjkg6Y0sIZOmnu2HFjCw7GMjRy+gDdyjH+aNwOFaLrZaDXG1OUF6gS3LHf+wDcEyVo12IynFX1QJs24wWNF7o0XjAaL5JfMl7wkUGnMVpaG5IdXMfF2MK5hgJJoQsw6erNCtgtWgN5K6vfeJbL394quC+K0KDccqCzgFD+sXDhQnB/vjGUr3MxCAX8LwIBR2l+QCF8HgVW0TSX8Kb5SFwdoAbNR5RkXgPueAC242kOozLPUF7AveUC6PcBnCmAoukF5DR3eUD5k8Ip3YDKOQdcmgFcu0HNS21qNhBo2b4gr3J7Y+/fgWSaN3WeQHqjTKsIsu5hz+/HEJSdgdgAT5w6fhzHC4+TN5HeoAecqim9hxjmzZtD9/pBnPa8gIOuXojJyUFaXBge3bmK0wc2YNnRbLzT3wlG+QJrih7qtauLSPfDOHv2APZfDkVadjoSnwfD59oZuB+/gRBJG0z6dDDqKSvN0uG160+cDM5BZvwTeJ5Skff4CXjEOKBP6+oQi63R3C4Mhw56wOPYWQTl6UKRGIirLvMx64eDCDHpi+W7fkPv/IdeGOKubMXfFyORlRYF36sncMyNDHLVPMzbcAMpdkPx+7+L0Z33AzJcuZeS0Gzs1xjVpIxeE5mgpvgBdrtegsfZu0iViJEZE4Q7Jzfg26834G5uc3y5YQUG11R6gsqTN+HaNmy8EIr0jBzIc5MRE/oA57Z+j0+WnEW8w0Ss3zQTzYypg8VmaGgZgoMHzuHcsYsIZ7qQJQTB89AKfPbNv3ik2wU//7MUfe0K6pzrtRlf/7oFbtRPJ89dxS2fcKRmpyHK7ypOHj+JWxkN0MOpGmkZJ4NHEpqP/xIjGhW3meypO9a4PIR5n9n4qKsybyFiGMddwlb327hzMwB5+jpIi3gEr4sncT2pDtrUNyEbksF35RAMWXYHmWZO6NI0G/dK6M5xnLqTi6bdmsBCh1/dxJaOsAo9hEMXL+Po0XtIkMuQGfsM96+exO4/t8K/zmB0rK7aF5rIy5ETDZdVj/GEGaLLR23Rt0ZpfUpRoXLjCe+DwNMT5Jz06XdB5Fx+IGdyAbD4GBjyYfEdqrD5gNu/NJp8AIylPFJToHZ9cnB7gMfk5OzJeVkakdMjp2ZaQ+2wB2IoAAumwK3NKgrk6tLvqWClk0yjACzkPvDsHp2EBqd05V0rynuWnGQmydeVHFiN0rZgYYi8cBfbrmVC3MARX020R6mPg+Yl4MTmxwhQbgYiz0JePSdMoaiWr5YXo0Cs3/eY8zAOg/r8jak2qnvFq8Mnr6aQ77Mn3/eYfF8Q+b4Q8n0y8n1p5PvCyPc9Jd8nJt/XgXwfVTI3kmzoCtnQE7KhILKhWLIhGdlQHNnQE7KhXLIhG7ILEemvAemvH+nvE9Jf6nhZFumvP+nvOdJfHdLfYaS/xvkOFQlhZG/BZPO5WZDJkykmv4sz93/B51fPIM50EtYP+RjN9JQaKSZ13I8dYQEISlHAQpIC/2fbMP/4TCwLT4FEIUfNhl9gskOB/mosr7IpNEZVXvJRJG9MMvmoe+SjrpCPMiUfNZR8VL68IuiLHuPQg8u4F/MYcgMDJETuwbxj3+C4vDpMc1JgUZd8SS3O72jcDvzqxiev2IB8SQr5khDyJQHkSxj5kgzyJWHkS26SLzEnX1L47A4P5Mknsd77HqS1pmNG3eowMOuOAVbhOOZzBIeePEHNRqPQirtqX91CgtvebvAIdIVHcgZkshTEpDyF3/MbuEj+5YleZ7QosZGFGNXM83Dt3mGcCr2POJEzPhv884vPZ/FA43bQStdpbHGisaWaytiSSGOLD40t9Qr1oRBqD9MUnLp3CB6k91GirvhxyKdoJy3y0ATPNsujOZfnMYRYDMM3LVorn259BTReZNB48YTGiwgaLyQ0XqTSeBFC40UWjReWSnvjI4M+7OGDXTShvRYZBqlUhsePf8PMU1uRaNUS+umxsG5QbMf80UBeXv3GA57l8re3iu6LQjQptxxwu/0pr9lxf71h0hl7MIuxVcqty0mkwmOxHWM3fLg8RP626WLGXI9yCRx5J+i3lL6Fvi/cFFHxnLHT7Qq2SM8vj/5d1Y0x78OMbdBl7N91KjsYc9umLx6k3HyxAuG2TVe28wuHTh02+4LaXuyp99jWGd1YDQMxow4uyivSNWeO0w8XbAGuBbKw02zxmBbMUlekIoOIifSsWYv3tzD/wj0mC7dNVzm3av6SW3FnMN8d01l7G91iWUW6zMp5Elt/q3hDTeV2qvnbkBflETOJvhmr7tiRjfh0HfOIKNw7ni8v3za9VOQx7OKSYayhsWrbiph+zV5s7pFnrFiKypM3f8tyKk9HR0UGkZQ5dJ3Ddvmrb/Sbzry3fsRaW0lU8oqZieMItvRiTIltVzP2jmYUh3F1Uj90WN1PPFiBpnEyiG3YB0fVtjo+MZVVF+uyjr8VbnWsQrYv2/J+Y2YiVtUfXdZ6/sOirXHPzaypvCGs8n3JQ9J4LvMsajrN65ZPui/bMaszs5eW1F+pXT/2e/F+7MW8Ul4OTbZNz4ckCl3O2BojFQdFTmTLTHJKKu2Y5kp5KH2RI2NP1aw18JOCLc9XjWAsoRSZ8yEZrr5k23TZU8ZOkgNbXOjQOKe2rDlj1y6pbceuimbbpivrGPyPC7MVK7dOX8Q6LI17UQ/4IH/KVm83ZJI1n7KLL6tuIXzy8kSWTL5vP/k+antQmxUc5PsWke87RL6PU7YMb7Khou/VD7KhE4U2pIT09y7p73LS36I8pL9rSX+DVfVXzqJ8PmbOKw2YuER5Umb/zxy2O7akDcrTjrOvNlsySVE+PWa/7XO21/9b1mJRye2W+cmrKYVbX5OPWkg+qqg88lEk765YNZ1URLPjp1ozc2rPgnx6zGHHAnYu/DfWeZHqtun82oFP3Xi3Qw75kuPkS8iOivORL1lJviRGO+UruW16IVnM+2Y/ZkNl66+bzlxTC3tOzuJDVrDR682ZTglZlYcxG+2tPg4oiWcuB6pR24mY0b9rWXCxgmmPxu2gqa4X6o4m2+iroAhlf+00prLFzPrgvpfMcXi0Wf626WDS3VtVtvV+BXk0Xhyi8aJIj5UHjRcXVccLHjIowtiR462YGVeeaKEZczryD3sQ+gNzUrNjrdBIXk37jS88y+VrbxXdF4VoVK520ChcsJJQJKJZWGUsKtQSeSIQ5QWkZQIG9oCNM2BU5jKsVyAHEm8BMdGAfgOgZosKvPtUicjTQnD/jh8ikmTQt6qOuk1bopE170cpXyA3LgB3HjzB8xQ5DGzqoblzc9TU4opcCXKi4XPzHoIS5TCr1wadWtprcFXozSFLCsSd276ISAOM7ZugfftGsHwtSiHH42Vd0fzHZ3hv7xXMsQxARIYUdk3aoW0jq+IlPupkRuHh7Xt4lqiACSlwhzZ1UN4u0w45kp95wcsnAslyPZhXb4iWzk1gU57O5lm33MQnuOv1CFGZEljaN4STsyOsX9pwGsibch9Dbd1xXF4N316bieUdSlujqIIiCYi4CWSQY7Eg52TnwH3xGsl8DDwPILtTkHNsCDg4vcKpyXH7h03osiwOOv0HI/x0W1hz36gjD76BXo3O4arCHJ+en4O1PbU3jNzIeWizbTWk3e/gZo/mZYrIJ6+25GaQ74sm35dDvs+IfJ8d+T5pOQ0pj/Q3kvQ3i/TXlPTXnvRXxH2nCkvLf/lsYGos6aI+bKu1Q7tqL7F5RTICI2/AJ10Gc8v26Gxrx/8heq0hH3WNfNQF8lGjyUcZkI/KIx9F8rZ9mbyQISHuBm7EJ0Bi2hrdHWqXfgdUCZ92qGRys8iXRJIvySNfYkK+pDr5kleYf4XC0hEW7YWHSXHIFklhqGsOG7OGaGxl/6IPZJH4x6U5Pn4qwehRvtjX3EblLk/50LgdNNX1yoRPm/GGxoskGi9iaLxgNF4Y03hRncYLdWeksQwyxMVeg2diBiyrdUanahaoWPXSUN7K6jee5fKzt4rui0I0LJcnVTagEhD471IcUL3vGop/h1XlsPP/hKKAyhIz9o/Hl81oRBDpwqaOGSzexCyvApElpeBZbB6Ue7L5/7kPY/9OfElARRPi4EQEBkTg0MqL+PNSBqyGDsGNI61RT+sZQBpOuDfFCL9mWDf7JGaalTXb4ZNXoHIpDqjeH08+qpHgo948CsQ+noEuB/5BhM1PuDJ1EdpVxhUHAQEBrRACqreV3PvYuWg//DV5QlnSFON+mQznt2Vi+LbVjbe8E2D4uxBQVSkKAyrVJ1t1HbDU+yP80Phtntgr8GzVv2g8N7zEQ9DS0gIqWSTmOW/Db74KiiUN4PxeL2xc0w7tVfe6500GwmJ88VxUEy1tXnXHmk9egcpFCKiqCjnp/niQ+Bzhkfuw7Mo23JO1wNyJV7C8dvk2nxEQEKhYhIDqbSVzF0ZYTsZRTbY2kQ7HzkQ3THotO8FVAG9b3XjLexjt1woBVZUi4wm+HXIV11U3ftS1xsydQzGp1utez1KRMES5nMD762NKBFR6HbrA9ffGJd4LBkU6ru72R4CuBVp3r402Dm/5rTmBciAEVFUDOZ7d6InG566R/Srfh9gVcwbtxIomdd6KRxYEBP6fEAKqt5YcpCWkIlvBfSwLsT5MVV4eXPV52+rGX15JdjKSMxSQmljCWJi3CggIVDHkMvJRueSjpOSjXuczRQIlSIt2g0tkEkxNmqFznfaoJYwXAgJVEiGgEhAQEBAQEBAQEBAQ0BLhqV8BAQEBAQEBAQEBAQEtEQIqAQEBAQEBAQEBAQEBLfnPBFQyuSZbrFUxch9ih+dBBMm5zwICAgI8eSt9X1WgLP+rCIHrze24q7pJycvgk1dAQEBA4D/JfyCgSsPlC21hvdQa7TyuIp1LrfIonmCb6xBMP/8T1oVncIn/X+TmRCMsNQ4ZmmzmUAWQ5cQgNOkZQtOTkf2Kxw355K0qKGTJiE4JxfPsNzQzlKfR+SMRlytcYdCMquH7cknXw1OikfI2ddsr/G9G6B/47tzHGHZ4EwJeUS8+eQUEBAQE/pu8pk0pZAjwX4xVvpkYMHg5xhhVYByn8MaCLW2xMDoPunYLcHf6fDSv8mFiOm549ES/a0Fo29sDJ7s6423Z0bz8yPE85E98f2ENjkRGIJ1UTiKth25Oc7G8z3S0M6hqnZcOP9+l+Pn6vzgTHY1MKG1EBB0dCzTvcBg3+/ZU2WFQ87yKjH34ePevuFf9Z5wbNg5WXHq5yT6EmTsW4FppEzuRA94begw/1lDdJkqG6NCNWHD5LxwMfYJEBSNfYIjqdv3xYbcVmN+kAfhtKiXHs7sTMPqWL7dNtwi6etawN62LZrVG4qPWQ9BYrUB52iX8eX4e1jy6jYg8Elxkhnq1x2PuO0sx3cGy6KpP9tOv0P3cWWrX0jBEv75X8HtD/XyfsHr/ZGxPUsCmyToc79Wj2L4UwdhyZBT+ypuIneO+RtOEtRh7eDOelBXUix3x8egD+My6im1UXCm+T1NfnY2gxyvw05XNcI+Kyu8TibQ+erRahPXvvIfGr62ptBlbNPG/6bh9uT/6XXqAup1P4Urf7nj5W3/45BUQEBAQ+C/ymmavuXjo9we2Pb6L5xV9BU/cDFN7fosx9d/F972modlrqlF5yAhbhBk3HsCw4Ur82/n/KZhSIO7pF+i7Zy72xJmhT5sf8Eu32RhmkYKrd2ej/76VuF+lVi/lwvfmcPQ4vAynMupgSNvvML/XIszvNhezW/RDc2N9ChcK4ZOXUCQgJNYPfsmJkFXkdQxFEkLj/PAoLRdGUjOYqR76xtAXqxqIDIEPJ6Prrs+xOSwdDRrNwg89FuCnDu+hteIa1nqdQYIWsmVnBMEv7gnimCmd1xT6ihg8DNqJVWeGoc2WaTikcitDkXESX+wajLk+j2BW72P80P1HzG5UDymhmzF790isfF78ci+RjiFM9QvqYiSPwqO4R4iSG3F1M4WhDtfCLBMxCdS2cT64fPt37E9TjZayEZtE3yXEIJPqJhLpw1iljV4oN/+gdhNVwXdRVYrv08xXJz2eg977F+JYpiNGd/wZC7rOQD+jGFy89QGGnz2HFC5f5cN/bNHM/xqjfbcdWFpfH943Z2F+SFn3//jkFRAQEBD4T6K8Q6VE5c9KIIPtO2DCRIt6sbUpci7t/xS5P1u5zYiJl/Zif8TLuMT/E3LOszlrJFT3rmxxZBqXSOQ9Yhv22DDxAjPW/3YwqzKtkuPOpqwSM51V77I9qa/QWz55CXnqetZnEZjejg0sWsElVgQZm9mAxWDSXX+zWC7pZchiV7OeS0VMvLwX+zUskZWUOpU9jQ1mWdwnzZExv8ttme4CSzbBX+XXOX5sp2tjJl2gw6ofOcKS8hPT2fkT9ZlkgSnretmLFWtENnt0ezCzWSBmZrs2sOAXmlPOYrz6Mb0FeqyfV4ya3ITMk81dR3q2zIpZLNRjzh73WR73ldL+ft2syyTr5jLPFxTtFeX+X6Chr87zYTuv72I+OdxnQp66i41ZKWai30axXZlcYqXDc2zh6X/zYpezLkvEzOif5czvFcXzySsgICAg8N9C+2uaeQE4dHE8uqy1gfFiCSSLjVHtj6boeu4UCq/PJT6eh+F7BmHQnlFYGZ4NKHyw2W0IfVamKY9h+Mw7BEUXFnNO4xeXoZh+1x+5WZ74y70nHJcbQn9ZLXR03QCv4ovVgMwDi/YVlqM8BmPstet48ekPBSL9vsIwl29wOC0G1zw/RJc1FjBYbILqG4fhl6eRxefnkKd5YJVbTzRaaQzpEks02PJO8Xn2TsOmWO1vo+SEb8ImaosaTnMxzaqMtyVq0L6F5Kacw/J8eU2g/6sJ7Nb3wofXziCslGVMfPIqUWSewff/2MN8dVf8EJTApWpH4pNN2JcE1G25CN/YG3OphKQxpvf6GM3Fqbjs54ZwpSwsEgfPDMOwMwcRmemFTcffQdNVJPMSGzTd8z3ckl7sA43qVlju2cOISr+GP9y6oN4yA0iXVkcLl19wMlXl7klWEJ5lKiA2c0brVywl4pO3apCNy17rcTXXGD26b8H3NS3UbleboIF1Hehzn8qNXlNM6j8Pg6QKxIZdxANl92UdwybfYMBiMhZ1botijZCicZvF+NhWB6khB+Cm0id80LEYg/dr6MD7/hqcIPfzein0O1/jYGoCvO7Mwjt/2cHkVyPY/DUI3wcEQ12DFVl3sP3sKLRfYwWjxVKYrHREl0M/41Cc2iLHSvB9vH21xAmTOk+Ek8ryTbHJQPS10wXLC0FQasnaaVw3jszEY1jq1htOq81JXj3K3wjdDy/BGe5uI295OTT2vxwS64/xTVM7ZEdswobQ0mUthE9eAQEBAYH/FtrN/GhSusetD8ZfcUeofnsMb/ERprQYiZ421pDnZOQ/OaIczPOynsE3xgc+MX4IzVIObemIjFd+Ljx8EZiRlZ87H3k4vIJO4Xzofnyxoy++fBSPeg3GYKBFNu56f473L3gUPz/BkhAWy5UT7QmPwFM4F/P8hUkKZUR6kidOPz2G7ScHYND5E8iwHoJxjs2gE38cS47Mxo5UlRl37mX8sHsIvn14B3nVBuG9pr1RK/suzlL5p0Nuwzv2MaJyXxJ9vJIcXPN1QzDqYmSL3ioTSDU0at8CFCn7Me3fIfjB9wkMqw/CeKf+aMLuY/eFYehz/ChiVDLzyVtIdvA2/B3xHCnpN7Dx/gUuVRtycPvZDSSLbNGrYacXJuoSm77oYaaD3Bgv3FOqCktHUPhpnHqy+3/tnQd8FMUXx3/X0gMphJLQe0voSJWiAgIivUgTsFCsCLa/JYBIUVREAem996rSlN4hlJDQE9IhvSd3N/93ySa5HAm5vRAI+L6fz+oxN5mbnTfzfvN2Z2cxcU0nvHc5AGUq9UJPD0cE3pyJIZu+xzmj2ZLZ55ZVrv9SvL+qKz67noi6NQege2kV/K9PxdDdyxEs5VXa1UINexW0oYswyccXj9o6RE7eYoHuPPbcvge9ph2GeFZDwVPLx4DGGU5qw9K5zAZODT6A4ykKlKncFS1Nn7lR1sMrlSpCpbuEM0bL/mShKI+BjbqgZPwm/Opz+6HJddGS43dW7euOTnvWIMD+RfSq3RyOsX9i5pYB+D7EKARKPoDPV3TEWyf+Qhjl6+M1AC+7pMLn6lQMXN4f8x8YebbH7vss8NV5IeKRkK6HAiVQ0sZIWuScG5EY8gNeW9wLX/mcQoxDc3SvPxCvepTB/TvrsC/jQoql9TXT/+bCCV08e6A8ArDj6jE8Oi6Xk5dhGIZ5rpDuVBlmONKngtHFzxOdpiiE9bI5Isis5UpmLsvIWK6kEEpvlXCcN1ZsiZYW6iRvE8NnqYTq57HiQPbanRy0kTNF68kK4bRpI/2SKVrhd6SF0HhDKKY2EGOuBUjLf1LE6f1elO4gel7MXIBkIMqnt3DyVouau/aJKClNpJ0V3/xhI5QzeouV8YVYy6G7KL6ZrxHKH94UO9KktDwwv32jxfatHkI1pb54/2ZEzhKldF8xZ2UpoZzcSHwTmtVgcvLmoI1eKQb9bC2UU6qIN3wCpFQL0IeJucutBCa3ET9E5bHURh8oZi8zfN9BzI6h2un8xLSFGgFvhbCZM0ysvC8tH9MHi5XrywjlJA8x6nqWtWWcm1G5DvPGiK0xUnr6afHlXA31kZ5iefZKNa247TNQVKG+BW87UXnZO2Km7yURmWcXkJOXqlHES/7Us7uJD/d9Jj4zPg4sF+ezmj5psehGfUzz+5fiTD51tIx8lvwRUTfeFdUmKYXrhjUikqwUdvplYeWtEW2O3aK/MkUnAk92yFh+1+FkYI5NMzBvyZ9mwXfCN2W/GPuLWqjnjBdHDKZ+Ykv+jPzOlFpimI+ftHxSJ4J9+ogy5OM8tu+W/FWKOLGvHuUtIVoePCYthzQQL84cfpH8kVKU3bwpxx8Z8Th9XyaWL89Oj5gmWn1HfmvBFHE5+09lnpvugviWfK1iUgXR++yV3OeUHiNiHvKbMuprpv99iNSNYtB0pdDM/UqcLahJ5ORlGIZhnhssukOlVDvCQQ1oI/dhU0jkY77yK6Ao0QfzBv6KXk7SZWvrZmjqqoI+IRhBlt4cgiM6vrQFc2pXRGap1vD0aAgnpOJ+QtY56BAWcw+JKInmVdvAOSON0NRHh/LloEjxxaWYh68Dm43uOvyjtVA510HdR9wSMLt9U/dhrX8orCqNwxdV3XJuN6rrYESjjiihv4p/7wZnpsnJa4TKaQjWvBeK0Al+WO1VUUq1AJGA+HSK2xX2cLTK4+QVjrDPuHuRhERDPgmFpg0m9V+IIaWke1oKd/TyfAUuIgJng65npllwbgqrjvh+wBz0LCn1MbUnmpd1gkJ3H+FJWS2uQhWvVTg29Ge8VbEUIu4uwKcbGqHa3G4Yf+EsonKqScjJW/Roo3dj9rEZmGF8HN+CK9L40aVEI85wHcW6JI2BokCL8PC/sffGHuzyXYFf9vdFu00LcceqNSa07Q0Xw92TNMM+iErYWznmcYdMCUeNLRSUIykjn4Vo2uP9pi9AE7UCs30jYLH7sBh7tOmwGQu9akl3ZZVwrz0Yr9gKRISczNxdUHcK63z9oS8xEN+2aWVkDwc0bfEVBpZUIOLOHhy32PWY4/sKSdpZzNg1Ayd1lTD4xTGomzUIZZ5bauBirAhLg1PNyfi9cb3cG0aoS6KkRvpsCWb634cgP1LHWQVtjB9uFNRYcvIyDMMwzw0WBVSw6YUv2naAa8JOfLy4Mqot7osPj67BiTgLl+aYoC7dCd2cjBSPJtFvDwxB+PiVGCBvD2cjbFHeyT33xE2lyZhg6ETWTEWFsi6VafoRgyN+OxEszb70Cfux9lYQ9JoaJJbSBNwS0iIRTcGC0sYVLo9qeTPbVxt9BX5pAql3P0Ht6TTZmJZzuG/bijiahkYmRsjO+xBqZ5S2sbjhM1HYwMYQMIk0pGjzmNaKZCRnbHcn5ZNQaKqitkvu37YuWQnuSj0exIdm/NuSc1Ooy6OSY+5ZlUaV0Rugy1U9FcpV/hALR9zAzVGrMblBKzjG7sXPO9rjxT07EWYSVJmft2ixqvwT/CdEIML4oPHTX5qQKpSZfR9aaveMlMdNHPb/+zq6rumG1zYOx8fHduG+6zD8MngrPi1r2DxeQXa2zgiY0rQpeQQ6euoPKfStIZ/JDomyUKF2ow/Q0y4au04vwrU8ul7RYo+qparl3npeXTGj7+mTQhFqqE+KL67F6sjvNUdz04BB0xRN3dQQSQG4m2xp5c3xfYWAApXl2/tiUqAWjVotw6xarjnCIuvc9AgPu4JgoUbDKq+gtOVGzxtz/a8pCje42VJP1cYipqDl3nLyMgzDMM8NlgVUsEPT1ntxYfgfmFi3ITT3d2DOgcFoPacOXjt6DNFFMHG0tnaFm52j0Tt/igbnWqMxyEmBgEuD4fnbC+i4vDXq/N4LC6Ns0azFF+hfmA0HFEooDZMEvTaP5x2MMa999dpUUBwBq5LN0aVGV3Q1Pmr1Qf96/dG1TCnZeYsEhRPK2NlCIYJxz+SB9Qz0t3EnTg+llTsqmtHGhiYQGf99UudmhXLl38DXPQ/D960/0LdkGnzPTcCP9/J6Ca6cvEWDYYtxZ3ua3BkfRuNHaVcOZTQK6OJu4VaRXEl3RLtWK7C2zzpsGPAnTrwXgoC3l+L9ClmTbSWc7EvRVF+P4Lh7eYwHLW5HB9G39nAvaXTX0RLseuLDhrWhC1mMeQHF4cmWzH4LkdmD9RQ4GnqGkgLMhy9bWMFKZTh7PfTSnxUr9HewbsdreNf3Pmo0Xo6tHdvluuMp79wMwXUq/VcBeyuHwtk8L8z2v6ZI9VOooc712oG8kJOXYRiGeV4ohMe3gnultzGj7xHcmHAXx3t+ig6297D70Bj8GJK/XBXZu4MfC3qE+f2BzbEuaF2vD5rYJOBe7APYl+2Dz3v9i7/at6TpXSGwKg03KyX0ieYsXSy4fdUOZVCKJghK18H4re9arH3oWIUZ9avIzls02MCzTA2oBZ1LwMO7b2kjD+DfGB1sy7VB8wJuAiZG3aD2U9JEu1LGv5/0uTmUGQHvRl4Z53IpPFpKzRs5eZ8oqiZoWsYKIvkf7C6S9+ZoUL58PwysPwD9andGC1eXhybUNmW8UEOpw917R3DXdDzor+NAwB3oNE3QxqOwew1aoVnT99DRKgDrz+5CjJT61Ei7hRtxOigdK6ESeWClbRm4Up/Xxt7C7YfawQ/Xo7VQ2FRExSf80usCfbU+EJt3dcPIS0Go3ngl9nbrjQomVZR3biq4OriRtfQIiL4hM+gxo76y/K8RIhShSYY7W+VQtqAlh3LyMgzDMM8Nj0eh1e5o0WAqZjWqB7U+ADejTa/EK2GnsYNCBOFOTLqUVhxJwgHf3Yiwaoux3ddi3ztXceMDf5wfvhbfezWEk+HqZmFQ1kd9VxW0UedxXs7ynXzaV+nYCi1dVEgOXIGlEY9ebiknby60V7B0Zye0WTkGyyIKc3VfhZq1usNLmY4z52fhrySj86dJyNaji3BR74LODfrA41HtrL+JVRf3IVZZB11q1MpIsvjcLCYBt6LDadpXAqUdCtorTE7eJ4iyEvrUbwdHGpNrDk3FkaJZ9/dIVK490L2MBunBizDrViS1URZ6hF6bjkVhOrhUG4Y+JQrvppROg/FhvfKIubEYW3K96PdJo8XNS0uxL0WFOtW7opbh1NQt0NbdFtrw9VgSGJ+ZLQM9om4txLr7OrhW6YI2T2SCbqavFiHYubc7hl8IQFUKpvZQMFUxLzPJPLcS5dugoUoL38vzsCfRHDvJ0BZL/W/yRfhQ4Kdx84JXQc9eycnLMAzDPDeovAnDh0mTJkH6WCBpQdMxcM8yXIgNRlBcEO7FXMOp6wsx88we3FG0xrsd3kTzXFdTlXBI/AeLrp/G2SA/pKtViI+7hjN39+BYcmU0cXHMfEYi/TxWn9iJu849MMGr8SPfgZMWvACfHF6Ibdd3Yc+tIzgVcQ9x2niE3D+CPdf34FRadbQrXYp+WSAycAnm3YmGZ/2P0bNUzu0PbdQOzL7sA6eqYzGyoiEvEBe8CisDTuDvq3tx8M4ebPffid03/sKhoMsI1pdGDZdSli87VJSAXexWLLlzBYrSo9CvrH2ez4aY3b7KcqiqPI1Vfgexl4676Vokp4YjMOoqzt07hL3Xr8O+ghfKGn5ETl4jUvw/QZf923A9+jyOpjbGp3XqSN/IR2nvibKxm7DxzkHsvHUL6UqaVEUdwdpDY/CF7104Vp2BlS93zHx2QkTi6IV5OBCbgEStDmkp4QgI24dF+9/D1FsP4OH1G/5oWg8Ocs9NKvdgiicGtuyZOaHNQIsb/rOxNtwJLzUbiTZ2SqQGfIc3DmyGb1wIQuODEBh9HZeD/saaY+Px9ZXr0Jf5EHNefhUVaOIkJ68BkXYGK0+SPXVJeBB5guq4C7uyj4MId3wJjR3zmqEWgDSGbmkTEfHApNwbJ5Hg0g716dwMY9KpjCc09zbiz6AD2HjtDMJ1qYhPDMS1kCP48+pcTPdLwcvV68PepE88GoH7AYsw/2406tX7BL3dHnG7UeEGT4dAbPI9iIP+f+OWTgN98k0cufItxuzfiLtWr2BG72noKC0BzRnzu/FXwEn4xMQhNf0+rgftpfPbjxD7jmhSghqYJtf7zi7FSXV7jGn8Itwy6m+NKs6J2HtuG66k6KG0a42RzV5B+VxNLJAYsho/37iLyjXHY4h73uPTPLL8TgAS0lKh08UgPOYi9p3/HO8d/hsPSgzBb6+NRj0r+gVFSdSwvYuNV/dh3/VDuAcNtMm3cMJ3Jj7YtwzXVK3xdY/v8YphpxqiqHxfJub4ai2uHO+O7kfPIsm6PlqXTsH5m0b9jI69IWmoW7EOnJXyzk1pWxOu5CM23f0X2/3OI1JokZR4GxcC92DVyUXwdeqGFrnGhZnaYsBM/2tKlP80fEpjuHajmfi4cmmjtnoYOXkZhmGY5weFYau/jA8KhWHf9IzEgtCGzkSXNd44lJBsdFVZCUfnThjXeT6m1Kok7SZlhPYqFm3vi/FX/BFPQp+JBo3bncWp9l6Z+ZMW4tWf3sGhKosQNnjUI3cfS7rcF2W2bEbei5VUqNJsH6517UDTKB38j7aB54HbeGNgAJbVygnTUm68haprVqDSS5dxtE2tjIe2dZG/4dVFH2K/1hnuNmqkalOQkp6IRJ2Wam2LWo1X41D3Xihn4UxL92AGXpz/JS6V/xEXhn2M6nkorqz2pQDhyPF3MfrINlxL1WW3rAGFpg9WT9yEQVlXtuXkldCGT8OLS/6HE2kOaPXSMRxr4yl9YyHpV7Hiz5GYePEMIqSHQhRKVzSsPwnzXx2H5lnm0ftj+hJPfBlMk19qhazaKlQeaN14Oha8MgR1jOtq7rlJ5f4v+g1s/XgZemQ3ZAr27KiK13wqYeqYo/i8lApp9yah4/rpOJGYe9MEhdIF9Wp+gJldvsKrJTMjJDl5Dejjf0enX97DAePM2ThhUL9grKmba48z85DG0J95PRelqIyxQ/3wexWjSwKpF7B434fw9jmGYK0+u90USifUaLgYJ14z7MgnBx18D7dAw0O30b9/MFbVKWi5XhKu+nyEkX8vw5mkdOn3NXAtOxCTuv+KcR45XuDRY94BfXqHY5MntZnuJD6d1xa/WHvDZ9T/UCdrjIlwrNpYH8OvPYDSdSKOjJmJFjkmIfSIOEtB7+5/0L7bPextWpgJcZbfOQ09+Qq9yGpba3hUeAvTX5uJIW7G9k3E5fMf4M39K3Ah2eBrDNCYd+mBL177A58ZTc6LyvdlU6CvTsX+XTXQ5dw9+oW8UedqX/PPLYM08hH73sEXF04gRJf1+wpY27+CacN24+PSJupijrZImON/c6G/g99WNcCHQU3w4+j9+NglV0vlRk5ehmEY5rnCooAqAxGPgLBzuBr7AIl6a7g6eaFZuUpwfGSgoUNM9BmcCQ9CjLCCk0MNNChXB6b6+NTQX8fslc0xPqQ+vIftxdcejtIXqYgIXY2PN7yLtXGt8ON7BzHe2VKxjMK2bQ3Q95ISQ/qfxZLa+TxwL7N99WmB8An2we2klIwNCextSqOia23UdHx4S2o5eQ3ERh7G8QR3tKlUHVktUlhSEy7jZOgtROlLoqp7SzRwNJl4Zwc+g7BmxDi4PAhCoros6rg3RS27hx9vz0LuuRWISELoAx9cjQpFtBawsfVAzTINUcs+j/uUcvIWM3Spd3Eh5CqCUrRU73Ko4tbgydZbG4bLQedxK1mHks5N0LKs+yPvUBd/coKZQX0OY5ytH4LSrVG2VDM0LeX60PNk2aSHUP89j9vJejiW8MIL7pUL8KlFRRH4apnnlpZ8HeeCryEkXQ0XxxqoX64m3PIdxObW10z/KxF1/W00XbcU+obbcbFHt0de5JOTl2EYhnm+sDygeh5JnI/OP43BIY+ZuPbmRFQzVlpxFz8tq4VPgpph5rh/MbEQVx91McvQb9Fb2KUZjg2jFqKnQ0GXSf+D5HsniWGeBfK/O8Q8Xcz1v/rEPRi7pCcWpfXE8rfXYfAjnuWTk5dhGIZ5/uCAypi0HRjxay8sT66Izi0mYESV+ihvrUJyoj+O+f6Ony/7QFT+CaeGfmj07I0l6BHiOxJtN69CYpVfsH/ge6jPAUNuOKAqHuguYMW/6+Gb59JEE5R1MaDdMDSy/FpD8UV2OwyG3QkOqIonZvhfnR8WbHgJY2/a481+h7Ggdtn872TJycswDMM8l3BAlQsd7vl/jqG75+BwvOF9KDkoFE6oVXM85nT7H162ZLOAh0jEueM90fVQKIYNOY0fKlnwvMzzDAdUxYP0leg5Yxi2m/OuKtXrWPHZNgw1eQ7vuUB2O2xG81McUBVfHu1/k+6OR5PVa1H5pT+xuUUDPMo7y8nLMAzDPJ9wQJUX+khcu3cMF6PDEadTwNamPGp7tEZTJ8fHfOUxHjcfxKByqQoPb+Lxn0eHlJQYJAprONo65P/MCVPEpCI+KQ4p5rgGhQ1KPIGXbz8d5LeDWhuDmDQ9rK1d4PA83rV75nmU/03F3ftBcHOrZsa7B+XkZRiGYZ5HOKBiGIZhGIZhGIaxEF7qzTAMwzAMwzAMYyEcUDEMwzAMwzAMw1gIB1QMwzAMwzAMwzAW8twEVNo0rfSJYYoH3CeZJ8Gz1s94XBQftDq2BfPswv2XKU48BwFVPP79sincHNzQ7KsjSJBSGebpwX3SUvRpsQgPDEBwdArMeeXTf5tnrZ/9d8ZF7M0v0Xnpa5gckCSl5I+cvI8PssUBssX3ZIuDz4Mt9Ai89A7aL+mO7wLTpDTm+eXZ6L/akFnos7Qdhp/zhzlv3GCebZ79gEp7B4f+uoSY9Bj47D2IO4/lgoUWfpu+xVv9JmJThDnTOi3Cz6zHjxPeRM+XWqNZ4wbwbPIBdqRIXz+EDgGrRuEFz/qo79kSE/9KldItRW59zSBmE0Y3pvrVz+No0BlTT/2XREtm+xZJnzQHHa7P7YeGXu3w1T/GfUqPe+tHo7WXF9p/uA2hxS5SScGdP2diVMfaKO3ojLKVKqNCKSeUrf8qPlh6AbFSruefZ6OfaX1/Re+GefgF46Nhb/zqa1KhpzYunjDiHtafmouDMWXRrFwBb6WSkzcPtPfJFvOpvec+4phPtrhv0th6ssVNsoWebHGDbFHsfIJcBJLjLuP4vTO4mfzMn8x/EPJ9vuT7NpDvSzTDfs9I/9Wl3sb5eydwMTYp13tNmeeTZz+gUtfDqG8/Rd8u/fD5pLdQ77G80CkNPht+xpId5xCaLiXlR9p1rHmnOWq3HIRPf16PY3fjIKwcUKKEXb7vTtIHr8WET5fj7LVr8L3qh3txhb12IaO+5qKLRoDvVVwLSYN9yZIometwgI36v/T4ncz2LZI+aQ4CKRG3M/pUUFyO+067+itGjluIM8lN8cFnPVCuWJkuBsemdkWL7p9j2ZlU1Os9Dl98642vxw9DG7vLWPrzRlx/XifeD/Fs9DOF0gYORv7APi0E165eQ0iafW4foVRIfyHx1MbFk0V7fzkW3UlCHa938FIBL9CTkzcvFAqyhTW1t3TY68gW98kWOrJFdjrZQmFiCyXZoj3ZohrZogPZ4r/kzpliCPm+q+T7/Mn3mTMd4v7LFEcM76EyYPSREYliXT9HobDqIH4N0klpeREv/pngKWyU9qL2gJli78148ajcGehCxPpBHkJt10SMGNJEaBROYsCGROlLSzG3vjJ4sEB0sYaw7jxfREhJ/12KoH2LhHTh821joVGWFsO3J2cmxR0RXzSxF0qn1mLK6YTMtGKDTjzYPlJUViuETc1hYqWf6ThIFgFX/EVkcW7yx8qz0s+M0YnweZ2EFaxEp3nhBfu/555k8c+eGkL9XXvxU6RWSssPOXnNgWxxhmzhTbY481+zhVb4HWkhNN7k+/wk38c8Q5Dv20C+bzL5vtjnp+em3B4rKk/SCK8D50mdmeedYhTX6xG8cTx6dH8DP5ksJ0s7MxtDuvfA+I3BOc9VpB7E5J5d0bVr1tEN/Wccw8ML0aRye0zA5pBwHP35TbSu6gxba0eU8+qBb/YEZ69tjdr5JV7PKKs3fjieAmgvY8Hw7ka/0QMfrL6bnV93ayG85/nCsdsv2Lt6IrpUcyjglp8eEdu/wMSNUWjwyRx8VE8jpVuG3PoWDea3rzFJN3fi+xEdUd/DCbZWVnAsUwsvDp6Kv0KM7t3H/4lvXn8Nby/0RVrUCfz+dnvUdLWDjVNFtBg+F2fiM7NpfeZiRPdu6PX1HkRnJhkRjb3f9Ea3HuOw8rahJln1/QQbgyNx5o8xeLluWTja2KN03a74fNsdZN0Qkd2+ZvfJTPRRZ7F0Qm80r+oKe2traoOaaD3wa2y6ZvwshWXtm4E+DNs+ehM/XiqFAXPX4Itm9tIXRqQFYt+MEWhfqwy1gQ0cy9ZBhzen46/AnNtC8tpXIskPm74ZiNY1SsPBSg21tQNKVayLNp/uzVnvrvPHwulrEKCog/eWzMWQWqZLnmxQsV5NuBgPKjPqa1GbmVUuYWafzEB3D3u/H4XX2tRHJTdHWGusYO9WDS/0/gxrryZKmZ6DflYQZtZXF7AWH/Z8G4t8LmBevzpwtndD88/2IzJkFz5pVRZ2jpXQZcYp5HrSyFy7ZZEWgYWD58GtxEzUH3AWV/JrNEtJ3ok/rt5ByRpvYbCzSkrMBzl5HxdassU6ssHqrINscTQPW8SQLdaRLcLIFhvIFlPJFvvIFvFki8Vki+/JFkdNbKEjWxwlW8whW3xHtviRbLGNbBGbjy0eSRpOnxyM7mu/xM5kKckEfeJ2fL62OwafPG1UfxXUCMc/x4ag5S/Uf6c4wn1+b0y6FUo93ASz6kvj4iqNi7U0LuJpXJygcTE7s9xy82hc3CjEuDBQhHVIiiKN3UYaO4s0dgpp7A+ksZtJY+ONWiKV/Nla8mfnyJ8lkz/bQf5sBvmz6eTPtpI/k1aOa8NIA9aQBhzMRwMOkQasJQ2INtQkq76ksXGksWdJY38njf2ONPZ30lg/I431J9+X0Q/J990j36cn37eNfF92/yTfd8nI95nZf7PQJ5Pv+5t832zyfVPI9/1Avm8T+b77Jr6vKG38EGm4fulj9Ka69923EbeNO6YZ/UGeLSTSSY8PkR7/Sno8hfR4Cunxz6TH+4z02GwsHJvm+gcz+2Q2j9XvFBIpsCoGd6i0wm9ai9xX1yWSd48S5ZQa0WKaH+WSSNwkRlUrL8qXp8PdSVgrFMJp0Ebx8L0eqVx1TdGtd0PhqCklGnQbIob3fkF4WCmE0qWHWJxxNVgnwpYOEFUN5dFRyk4pFAob4ewh/UbGUUW8+pOvVAetuDGztbBSVRZjD6RkpBSE7sEOMaqKRtg0+lIcT5TqZfEdKrn1lYnZd6jMbd8cEs7MFB1Lq6i+dsKj8Sui79Chol/3tqJ2mfrik6OpUi4iow4qUXnwN2JMA3uhcaknOr8xVPRs7CbUCrWo/t6BTHsnHxTvVVMLRYmuYkFw7t/ShS0VrzsphcbzS3Em4xJRVn1riB6DWggndQlRvX0/MXRAe1HVXiEU9s3EpLOGOljQvmb3SSJqv5jY2FEoqQ0qtOgpho6g82pVUdjT36jKdBPz/LKuZ8lpX+M7VPHC/4/uoozKUTT76qiIk3LkQhcg1g2tKqwU1qJcw86i//Dhok/7GqKkSiGsqo8S28KkcmW1ryExSKzq5y5UClvh0bSbeGPk2+KtkUNEn64vihajN2bXRXtjpmhN56Bp8b3wM6eTmltfuX3S7HIJc/ukgZRD4v3qDqJs3daic8+B4s1Rw0XvtlWFo1Ih1BXfFFsfGMp9FvuZMWbcoTKzvulXJosm1uVF194tRanqHUSXBk5C5dRNvDWA2qVhF9G2shXVY6DYkNWB5NhNIuXALlFZ5U16R4d6tvjgH4u8Yz7oxN3TrwjHSZXEuzcKuhssJ6+5mHGHKo1sMZvsMIuOH8kW3mSLTXnYIpxsMYVssY5sMZtsMY9sMY1ssZFsMY9s8TPZYjrZIkv69GSLLWQLb7LFPLLFVrLFUrLFJLLFbLJFfJ61eQTp4tIh8mWT64svg/O+tp8e9LmoN0kjmhy6RLmp/2bcoXIVjRbWFHaTnEW9lW+I4etbCI/J1H9n9BLL4ozqYHZ9pXIn0bhYR+NiMo2L1TQu1tG4MJQ7ncaFpXdUirAOCcGksTNJY71JY+eTxm4hjV1NGvsDaWyAkcYmkj+bQv5sM/mzeeTPppM/20Q+Yj75M2/yZ7slf5ZOGjCbNOB70gDjdiR08aQB00gD5pIGZHyVVV/S2E2ksZNIY5eSxm4kjZ1KGjuVNDZY0tgL5PsMfZGOUt+R7/Mm3yf9O/Mg33fcyPeZ2X8zSCLfN598H7VBhYXk+7bReS0i30d/o/qBfN99I99XRDZ++A5VqvC/OEhUm6wUDvPGiq0xRv7H3P4gyxaEnvR4A+mxN+nxH6TH20iPt5EeryI93pmjx+Yjd2wScvyDuX3SgJxynwDPbkBlhPYmTcw0+U0qpHLp/BQODcSYrQFSx04Rp7/0ooDGQfRcHp2RkoM5S28SKE9JobTpImbuWymmjO4jXmrRRDRu2lZ0e/MbsfJ8pImgRYm9Y2oIjY2X+OyoQUCleimK95I/dbVu4sPPPhOfGR//Wy7OZ/tkme2bfkF828RGKNQVRO8FV3LbKyVGxBgnZNSBHJpSJRwbjhVb7kqDN3qbGO6hEqpKY0VmLJsuLnzTkH7LVrT/+ZZRH9GJoPldhCNNuFpOuyalG9XXppYYttJPZPY2nQhe2UeUod/yGLXbpB/Jb99H98kUceKzetTXS4iW3xwTOa0TL85MfVE4KZWi7OBN1GMMyGnfrIDKTQyY8pVoWUItPHotETelZjMlevubwkNlLeq//7eIyD6tZOE7p4soReOt0TcXpN+S076UGjZPdLJRCOuOc8Sjmit5yxDhSu1dccx+OhspLeSKOHXihDghHScv3BExUhnm11denzS/XMLsPmkgQTx4kGDiB6LF/nE1KfhyEv3XmU6kn5V+Zoy8JX+Pqm9GQKVRCpX9C2LKxVQRv6qXcKAgVVN+oFgbmioufN1AaDQtxPdS9C3LbhLaO2dFV5fMgErpvFosCNBL3zwGdD7i2z+shGbeV+JsQQ0hJ6/ZyFvyp40kW9CEMd+AiiZ9qqlkC2r7eB+yBU1mNLPIFvFki4Nki8lki/uSLfzIFpPIFnvIFtlNSrY4RbbwJlscfNgWBRF3qbdw9HYRg32l+UBqgPAJuiJCpIKSfcl/eDuK3pcMU0LqvxkBFfXf7+qJUZdv0tTVQIo4tc+T0qn/XjQa82bX16jcqTQurhmNi/00LkzKlUOR1UFHGvsHaewk0tizJhqbThqbJn02kDF5JX/mTf6MJvhborMal/zZLPJnP5M/y0giDThIGkCT8vYnTDTgDGkATWhbHjHS2Kz6TiGN9THSWB/SWPotj+15aKzMJX+P6r8Zvm8f+T5v8n0HTXzfYfJ93uT7Nhv5viKyce6AKieYKvnHJ2KvyWTf/P4gxxaUGk96TDa2XkZ6/JjcnbyxKdM/mN0ni8bvFIb/zqN8Ckd0/H4L5vSsiMxnoa3h2bwhnBSpuB8eKf+Wri4CQWFJEGn78EXnYZi0+iRC0hQQMdewf/lkDHvxZXx+KEbKDMQe9MZHiwJR673f8FXrPJZeFVO0t3Zj9owZmGF8/LgFV0zvpprZvqlHF2PFxTQ4dZuM30fVQ65FXoYHqB/a6EpA4dEH87b+il6VpKfYSzRD01oq6MODEZRRDzU8hw9Ha9sUHF+zBn5ZP6YPxOb1h5Fo3xaD36iJXItqFPZoM2kzFg6pBZuMBCXcew3GKy4CEWdPFu1GCGmnsG6zP/TlB+Lbz1rBSUoGHND0o68wsIICEQf3wLD6Kxs5/VfE488ff8DJpBoYNGEQquX58H889q3dgVCrdhj3xUtwy/YENqgzYgQ6ltDi6r//IDhjOYK89lVaO8KBGlXrvw+bzuY/tlJjYpCgV8LZ1UX6Wx0Clr+FNi1boqV0tH59Js5mbNAgp74SZrWZBeWa1ScN2MPV1d5kGbATWrxQl+qThMgHcQ8vQ3qcFHU/KxIUKNf/f3i/gRXUdnawUmjQ7L1v0K+sCrZ2tvR9OrRaw/U/S+wGqCo3wbqjg7BgTndsO9wboyqabNZQCJICFmBlmAZtG41Ew9xGfwg5eZ8eZIt6ZIuyZAuNYZMlskVzsoUD2UIj2UIv2eIy2UJFtmhDtshuUrJFQ7KFNdkigGxhyCoDa+fqKK9IQHBsBI0TPcIuj0GbRW3xvm8kfatHdHwo4hXlUd3ZOvMPMnBEh5e2YX79atKmUNbwKt+I+j713wSjMS+7vjQuXqJxUdtoXHjQuMhVrhyKrg6pgaSxYaSxNUljG5torJo0ViN9zob8WQnyZwPJnzlJ/sya/Jkr+bME8mdZGtCQNEBNGnCZNCBrXAnSgKukARrSAE8TjSX/16YDaayXkcbWJo21JY0NIY0tSuenI9/nS76vBPm+Nia+rwX5vpLk++6Q78ul84/bxsak4brPm+i6Yz2i3L/E1sEz0cXBeODL6Q/ybKFUkx7TCWkjSY9DHo8Plzc2Lenr5vTJovE7haHYuvLHjsIW5Su55x7wGk3GwNFZ9HK4ZCQb1o+qq6Hf7IO4GRYE33NncP5GAC780QvuyRfx+5QVuGvovQmHMeWDP3CnxljM+aYtDelnB6uOP8E/IgIRxkfwSvQ3DXzMal89wi9eQbBOjYYvvYLSZvY+tWcndKtsVLLSHW9vC0F40EoMsM9MUlUehBGdnaC9uB6rz2f+nu7mRmyg2WLJV4aiX3mTH6OAqmrtLNGVsK6ISu40YB+EmrfTkKXE+OJaoA7q+s3R3LQd7ZqiaT01RGQA7kYbKY6c/kuT4s4ff4SmNv747d3PsT8qD+XS3sYVv3iI1EP4pLaz0e5sdLiPwNY4cmmRZGvpT2W1r1MvfPFlB7iG78THrSqjWqu++HDGGpwIzr34WU31VykEUmggZf6MCmW6TMRvc+di7m//QzcPo7OVWd8MzGkzS8olzOmTBmIvrcHXQ19G4xrlUdrFGU5Urvvo3UglJy8yFgYUIUXdz4oEJcrXrJnjI6kv16hTJXd9DFhoNwOOdWri7fea4LX6No9RACOx/ewGBNp0xVueedQ3F3LyPk3IFq4mtnDLo756ssUDsoWWbPEb2WIa2SDrmEW2oGEvksgWMru7lUsNVFbqadIWCK14gL3XjyIRsTjgu4vK0uJeXCiEsjJquBh7cVtUcC6f0V+zUUn9l/4mA4vqS+PCyWRcmJYrhyKrA2lsGGmsII2tQhqbPcl8NOrS5M+cjEpWkD8bSP5sPPkzqXlVTqQB1UkDwkgDQjN/TxdFGnCPNKAaaUAJ09FEGlvKRGPVpLGOpLFJpLF5jM3HRgr5vljyfaXJ95kGkBryfW7k+5LI9+XaYv8x2zgbgdg7E9FtxzoEl56A7W9MQgd7k7aS2R9k2cKG9Lgt6XEC6fFi0uPFpMdHSY/jcuuxHGSNTQv9Q4F9soj8TmF4fHryX0Nhh4wLppp66D6iPSplT1jsUGf4ePSvqkLKxVM4l67FpZ8n4Pdrani2dMe1VfMwb57h+AMbzt6noZaGOwcXZ/77dKQ0sSw+KDR2cHZzg5vx4eoI42uC5kNnm5pquPYAe4eCNvB4NNaOrrnroSyDXiN6oZzeDxtWHUMKdPDbsBFntKXRfejrZgZvNPIMg8+wFDYzoUjQp6RkPKiptLbOY2t9K1hZGSqrh97izqCAbaP/Yfm0l+Hg+xvefHsl7pgGiPoUpKbRWVpVRPMuXY02DDAcPdCn/wD079oApbIEWVb72qHpxL24cPAPTOzbEJprOzDn88FoXbMOXptxDFnzd7WHO8oodQi5fSv74Xanhr3xzpgxGPPu6/ByNipUbn3N5TGWa9onUy9MR/d2QzF17VnEuXmhbacueJXK7dKoLAWSUqYipOj72VOkqPqDheiiV2PRjWhUqPcuXjcNXk2Qk/eZQJAtdGQLFdmiOrV/DeODbFGPbFGDbCFlNxur6qjmCITFBCI16U/sDLRDt7rtoL27ETsT0xEcF07RcTVUf7hzP5qiqq8ciqwOpLFaSWOtCqmx1uTP7Iw0VkEa0JA0QJAGXJI04CppgJ40wIs0wKyxRuec8b8i1lit5PvU+fg+leT7irIS2ShQotzr6FrKFmkPdmNNYPjD8zy5/UGWLUiPW5MeDyc9rkt6fJ/0+ADp8RzS46Okx5a0gZyx+Rj7eq4+WRzGsQmFGW+PHUXGuzIMz3Vl/jsLXVraY7lNaQkiv8mG0g0VPOyhSAvCnQCT2int4WBH55JxIjoEB4YgXZ+Ic4snYuzYsdIxDt9svkXRfRJOz/+A/v0+pu4MLHRAlW99iwUquJZxg5VCj4BbN7J3+nlcOHYaiYHVgbubV+JAzCWs33wRugq9MLxzSSlHASTewo0gHZTulZC1ksuUx9G+SpcycDUsiQu8hdumjaD1w3VKVDhVREXjgEI2GtQZuwS/DfRA+LYPMWTaGeTsK0eoy6BMKSpfWQuDf1uLtWsfPlbNGIAqRheI5LWvFdzbvo0Z647gRthdHF/xKTo438Pur8fgx3OZJ23dsDWallQg8dge/B2VkZQ/FtTXLIqqXKTi4NzfcCLOGa/OOQvf43uweV1meUtHN8l9BT0Pnp1+9pSw2G4pOD13F3p0Xof3l4RZsMNVXmhx8cISHNF5YmiTdrmXWD2EnLzPCEqyhR3ZQkG26Ept3/fhY9UrZAu53UxVDTWclEiJD8C1mzvwr+plDO/QH631h7Hxmh/uxcdT/62BanLHZlHVVw5FVgfSWAfSWJpJBEQXgcZWIw1wIQ24RhqQQhrgSxpQgjSgupkam0YaG0ca60gam8+5PY4b90pb8n3kZLWx5PtMfamefF80+T4b8n22RWnkHBQ27fFD/1/xuq0/FmzthW8ConPP9SzoD/JsQXpcifS4L+nxBNLjnqTHtqTHh0iPQyzoJXLGZlH19eIwjk14gj9VEBTFO9pDKeJwL/B+dmfTh+7Cp19vwv3HMMEwHyXs7O2g0FOwdDe/N2za4oXWTWCjvYQdm69mXA3JIs1vL/Zd18K60QtorNGg5Zc7cezECZzIdRzDpve9oDEsz5p+mP59BKtG1ypwopU35tS3eFCiZRs0tNbCd8087MlrPU5hsH4BI4Y0gip0B5b/uBAbrwjUGjAcbc2atWhxc9VS7ItVoU6XrqiVS6Qfc/vatkDbJrbQXlqPJceM99nWI2rfQqzz1cG1Qxe0KexsS+mBAb8twXt1U3FiyhCM32lY7yyhdEerltWhSj6CFUuv0PTfDCxtX2t3tBg6FbNG1oNaG4Cbt6XR4vwaRvWrCOX9LZj01R6EP6o7WFJfcyiqcmniHhb2ADpVJTRvUznnKmnqLeza75vPROcZ7WdPAwvtprt1Hp98fA47//bH72O2YvqZx+CD0g5gwaWrsK48CiPLFODB5eR9VlCQLSqQLbRki4uPcQwp3FDN2RWIu4Qlvv/AqmovdHJ9Hb0rAUcv/47T8QKuztWMnp0wk6KqrxyKsA4lypPGqkhjL5PGJj5mjVWTBniRBsSTBhwnDYggDahPGvDQc1l5QRp7iTQ2hTS2Omlsrtkn+T4N+T5Bvi/mMfg+Nfk+d/J94eT7Ak183y3yfffJ91Uh32dWvR8HSli5jsLyfv/DCziD6RsG4JdQo0uclvQHS22hJj1uQHrciPRYT3ocbTx7NRM5Y7PI/EMxGMcmFKOASolSzZujpjoNR38YjUnLt2DTgq/Qq91ArElyh5vJVai0Mwvw0ZjRGD16NMZ5b8cd8hvJ55bgQ/r36NFj8fV6/0Lc1bJC41ZN4Ki7iYXvDsGkxZuxc8dmrJr/I+btC5EmpUqUHzAO/cprcXZaPwz4egE2bN+MlbMnolfP73BaVwMjPxuOKiolnKo0wgstWqBFruMF1Hc3zGRUcKraJOPfnh6WzmzMqa9l6PzW47OMNjU6xn6Fdf6Wta6qxpuYOLgylHeXYXDbnvjkl5XYumMr1iyahc+GjcTsC4W5pqZGnWFvop19JLbOXAh/ZSMMGtokZzJrDAXuJxZPwi/LN2H79jWYM+E1dJ7wNxIqvoFvxzUyCWzNa1+z+yRNsod8PAiV4Yc5/Trh7ZnLsYXKWzJ1BDoNXojb9q3xyRe9QO6q8Di/hGkrvkZr25tY9PZILPDPal8rNH3nA3RyScTRrzqh46jJ+GPdDuzeswtb1y3D3B+mYvVFU1uY175pJ6ejX8+38MXMeVi2bit27tqCFT9PwCdLfKEr0Rxtm2UtInHAK5N+wYgaSlyb3wfNXnobk+evwdadO7Bh6SacznUVxZL6mkNRlWuLOnWqUgB5GUu/nILlW7dhza+foneTphiyKSSfCyfPcD97BEXjqy2zm8LBDm7SM24i7QEOHIgqhE4Y0CPCbwE2xbngtcaDUMkwgcgXOXmLhrRgssUuanc6xv1DthBkixCyRUYa2eKKhbZoQrawJVscJFtsJ1tcIVvcIFtcIVscI1uEWTKGNKjuQjO0+G1YfluNl+u8AkdFGfSo8yKUQauwIRqo5FKdcsmlqOorh6Krg8qVNNaLNDaGNHYJaexJ0lh/0tjzpLFbSWOlZ24sgzSgAWmAFWnAMdIABWmAVz4aC9LY86SxF0lj/Uhj/yaN/Zs0tiRpbPM8NLYC+T5Bvm8X+b7z5Pv8yfedJd93y8j3mdt/leT7Wki+byP5vmPk+6i8JYfJ920h32dFvq9N0fs+UxwrfIONr7+Jaqn78fm6N7EsKssWlvQH82yRFkR6vI70+Bjp8RXS4+ukxydIjy+QHluTHntkL+qUgZyxWVR9vTiMYxMyN/vLuMkqfXqK6MLEro8aCyelIqM+UFgJj5e9xb4T00QrTe5t0xPX9BEOioxluHkcKlHlvYMic/dibeZ2wHK3Y0+5Iha+UTvjnTE55WpE4299cm3DGH1iluhV00Eos+uiEDYe7cRH629Iv58fUr0ey7bphJn1NRtp2/ScsoyOXO/esqB9E66I5WNaCXdr47oqhHXZTuKny0a1lepg3XWR0banBfFArO1fSiipPPuOv4o7Dxk2q92VQqVSCprTZP6+wlp4tBknVvrmYwsz2tf8PmkgQVxaNFI0dlUb1UEpHGv2FN8fMt7yWE77Gr+HyjivVtxc1EOUVSmEQ9P/iaPZL57QiQeHZ4o+dZ2EyrTeCgfRZ01ebVFQ+1Itzs8QL7nbGo0JQ3l0btW7iM+3332oP2oD/xRT+noJF03u/qCwchNebywUvtl/YG595fZJGe0go0/qQneJ8c1chDqrTPJn7m0/FGs2fyq8NFai45xgIztLPBP9zJiCt003t76Z26bn/E7ylsHCRZVVH6l+miZi8pWslrCk/+rEncVrRRmlYev0yeKF7+/ncU4y0N0Qs5baCfXs98Uh045tipy8FlHwtumJl8gW3tQ+eR5ki92SLTK2TSdbHJFs4Uu2mES28JNsYdhmejLZItzIFnfJFr+RLR4ql2xxKR+/WgCJVwcJZypDOXOI2Cx1al38YvHa9zQ+vJ3FoKtGYz5j6+usOuaQfJ36r3fOuWRibn3lliuHIqxDKmnsLtLYKYZ2yiqTNPYH0thsmxEZW1STP1slU2M3kAZQefbLSAMe6mhZ9SWNnWR4t1TW75PGLiaNjcinL6ST79tEvo/Kzakz+b5DRr7PzP6bCfm+c+T7ZpDvy85Dvu9X8n13THxfEdn44fdQGUgWl052EqXpPG3mvC22Zr9LypIxVJAtqFlDSI9/JD3OVR61w2zSY7+H9dhczB+bBmScm6w+WTR+x1IUhv+QAGU8vyR9fMpoEXntOI5fi4S6fGO82LwSjDbNesLoEHP7DM5cDkKMzgpO5WqgQaM6KJ25B2gOuhjcOnMKl4OTYF22Dpo3qw3XvC/ZFDFm1reYkBZ1HefOXENIkhou7jVQv1FNuBW23fTBWPy6J97Zo0aflVew7o3SJrdhdfCf3gae/7uNQWsOY5yLH4ISrVG2jmHba9eHru7kpgjaNykEPqfP43aUHo4VvPBCk8pwfNL3jfUJCPQ5A5/b95GisIadvRNKV6yB2jXd4Wj6fEKB7Suhj0eAzzlcDXiARJ01XCt7oVmjSo88t7T7fjh78TpCY3WwLV0Vno08USGvP5BTXzkURbm6GNw8dRyXw7Rwqt4crbzKmrGhy3Paz4oKmXbT3TmODrX24YjeCe/vH4df21u+9C4t+Es0WTIL1i+excl2nvncecxETt5nFkG2CCNbREu20JAtSpItXMkWxbG/FYf6FmEd0pJJY4NJY9NJYx1JY8uRxhbGRxoQpAFrSQNukAb0Jg3wzENjj5LGHiCN7UMaa0sam04aW4o0tpQZGhtNvi+cfJ8g3+dAvq8c+b7CDJZ08n3B5PuSyfeVIN/nTr7vKdwdNhs5/aFAW0gI0uMw0uNY0mM96bET6XE50uMn3Q5F1deLid8phgEVw1iKHhE730XrPosRVP8rHD4xGdmry7LJCaje2BqAZT2KabRZLDGnfRmmOKJF5J0o3PQLwqYfDuGXfxLh+lp3HN/SGFUtnmDGY/eOuuh5tR7mjN2D0SUfpdxy8jJMcYU0wJ80YANpQGnSgFGkAQ8FOzkB1RsDSWNrscYWDebYgnmScEBVnEi7gBWT18PXnGWf6roY8M0wNHoqd8KKF6lhvrh4KxT3Tq/D9O+W4HyKFybuPYwZLzpKOYzhgEou8tqXYYoh2mB82WgJpl3RQ6GxRaNBHTBvdjM0z3njpwUkIjD8CkIVFdCgtLv08tL8kJOXYYoXqQmkAVGkAcGkAYdJA7SkAUNIAyrlo7EcUBUZ8mzBPEk4oCpOJK1ET5dh2G7OdiXWr2NF1DYMfRZ36Hqs6HD7x/aoPfEo0qGAVbk2GPf7CszsVTmfJTUcUMlDbvsyTDFEn4Ajq3zhp3FG4xcroYkHX4liGPMgDThOGrBP0gAH0oCupAF1HqGxHFAVEXJtwTxJOKBinnnifbZh7alolPCoh1btm6NiAQ/d6VJiEJOoh7WjCxx4XlUgctuXYRiGeX6IDyMNCCYNcCQNqEwaUIBu6rSksWmksdaksYV9ZovJhVxbME8ODqgYhmEYhmEYhmEshJ+MZRiGYRiGYRiGsRAOqBiGYRiGYRiGYSyEAyqGYRiGYRiGYRgL4YDqGSL15hfouKQ9PvCNhF5KYxiGYRiGYRjm6cEBVaHRws/3W7y1YSI2JRZtmKNL8sOJeydwNcGcfdUZhmEYhmEYhilqOKAqNGnwufozlvifQ6hOSmIYhmEYhmEY5j8BB1QMwzAMwzAMwzAWYvF7qHTxB/HzgclYeOMs7qZZoULpxqhpJ71hTOGO11+ej3dLS+9u1gVi34lvMfXCHpyLjQVsqqBp9eH4vMMEdC6Z9X5nPYKvTsCYS0oM7z4RZa58hs9Ob8f5OC2cSnXA2y/Pw7c1PJDrHXFmlUuk/olvtvyO0Joz8HvdWCzc9wVmXzuNQFEKDWt9jjldx6KZtZRXfw97j3lj7o1TuPQgAGEpqVDbVED9Sn3xUYdvMKh05ltNo/y/xIizF5FO9Y4IP4jz8SVRr0ozVMiuoBrVPX/Fz16Vc+psbn0N6O7ir5PfYdalP3EmMgJJSie426QjMD4J7V+9g33N3TkaZhiGYRiGYZinjGUBVdq/+HTxq/gxQonKFbviRSc9AoMO4HBUDPRqV7jb18GovgcwqTwFWCIQ67d1wLBLwXAt0x5ty5aFLuY49gfeRLLTSGwYuQCvOxhCAx38j7aB58EodKplh8PXg1C1Whc0VN3A/uunEWr1GhaO2YqRJaQwwuxyiaSFePWnMfCr+z+8GjELi2Iro2P1xrB98Cd2hUWjcrO/4NO1I+wMebX/4IO5r2GjqgEauFZAOTtrxEUewb7AO0guMRwb312MnpQx/OIbaHXwGNLoT1KSQxCptYKTYylkhlsGNPBsuRs7W9bJDKjk1Fd/E0s2dsBov3CUKNUOL3lUgFXqPVwNPoaL8Tp04ICKYRiGYRiGYYoHhoDKgNHHAony6S2cvNWi5q59IkpKE2lnxTd/2AjljN5iZbxOShQi2u9N4THJWtTf87eI0EuJIln4nuoiSnlrRKODF0R6RppW+B1pITTeEIqpDcSYawFSeoo4vd+L0h1Ez4vRGSkGzC+XSFwgukxRCKW3SjjOGyu2REvfJG8Tw2ephOrnseJAduYE8SAxQeScgYFosX93TaH2dhL9LydIaVkkinUbHIVicgfxa2zuvzLG/PrqROjFXsKV0mpu3yqCjIpM9OkpbLytRMdTwSb1YxiGYRiGYRjmaWDBTQ4dwmLuIREl0bxqGzhLqdDUR4fy5aBI8cWlGK2UGI99l3cgVNUO49q8BDeFlAwb1Gk4Ah2ttbga8A+Cc90Yc0THl7ZgTu2KyFwEZw1Pj4ZwQiruJ0TSrxuwpFwBRYk+mDfwV/RykpbXWTdDU1cV9AnBCMreoM8ernb2Jnd/nNDCoy7VJwmRSXEWbFkuo74iDFsv/YUodXt81L4HPPg2FMMwDMMwDMMUWyyYrqtQ1qUyhT0xOOK3E8FSdKFP2I+1t4Kg19RAHWcpYNHfxpUH8RDaQ/jkN2eUnFYy55g1AltTKX5IikBErsDHFuWd3HM/K6XSZARXOiEFahaVC6hLd0I3J6OSFe54e2AIwsevxADp8S8DseFr8PWWl9H41/IoPcMZTlSu+67dFNIZwjKTQs1BTn1113AlMhWqkg3Q0J6jKYZhGIZhGIYpzlg0Y3euNRqDnBQIuDQYnr+9gI7LW6PO772wMMoWzVp8gf5ZgYBIQaqOogRVRTSv3hVdaxgfPdCn3gD0r9EApTJzm89jLNfa2hVudo7I2pMiNXQ6ui8diqlXziLO3gttq3XBq1Rul3Jlcwd5cpBV32QkawUUajvYZd/JYhiGYRiGYRimOGJBQKVHmN8f2Bzrgtb1+qCJTQLuxT6Afdk++LzXv/irfcucjRmUZVDGjn5CUQuDu67F2r4PH6teGYAqcmtRVOUiFQfP/IYTqc549dWz8B21B5ul8pY2bSItQcyffPf0kFNfhTOcrZXQp9zHg1xrC3UIiY+QljwyDMMwDMMwDFMckB1yAEk44LsbEVZtMbb7Wux75ypufOCP88PX4nuvhnAyvquicEerCtWh0h7BiotXMpbMPRaKqlykICzhAXTKSmhesTKyVwFqb2HXbV9kPRmWGyXsNHZQiCDciUmX0kyQU19VbTRws4M+/hgORRj2EDSgR3SAN4YeOYl8foFhGIZhGIZhmKeAypswfJg0aRKkjwUSF7wKKwNO4O+re3Hwzh5s99+J3Tf+wqGgywjWl0YNl1LSEjoVyjmrcfrSNhy8uRUHYxKh1cYiPPYGroYex6Ebu3HdqhW8MrYLF4gMXIJ5d6LhWf9j9CyVcz9IG7UDsy/7wKnqWIysWIpCGDnlEunnsfrETtx17oEJXo1hk5maB0qkhq3H8kA/3IrVw1kdC9/bS/DtrtGYfi8War0OFWp8hGEejsiJG5VwSPwHi66fxtkgP6SrVYiPu4Yzd/fgWHJlNHEx5JVTXxu44zJW+h7C0eBAWFtr4e8/DaP3LkKUawPYJETArbppHRiGYRiGYRiGeRpY9B4qXeRveHXRh9ivdYa7jRqp2hSkpCciUaelsMgWtRqvxqHuvVAuY8avR2TALLy763tsexBjsmTNAX16h2OTp+ENUNJ7qA7cxhsDA7CsVk7Yk3LjLVRdswKVXrqMo21qSc8ymVsukfEeqndwqMoihA0eBafM1DzRJ+zGxLXD8GtIlHRHygruFcfgxxbWmL7pF5TqnMc7oLRXsWh7X4y/4o/47E0rNGjc7ixOtfeSlgrKqK+4h617emDEWR/EUnkKRUnU8/wJq5rcxJDls1A6rzowDMMwDMMwDPPEkR9Q6a9j9srmGB9SH97D9uJrD0fpi1REhK7Gxxvexdq4VvjxvYMY72y0jYNIQGDYGfhE30eKwhp2GieULlkDtV3d4ViYyKAoytXH4GbwcVxO0MLJpTlalSmbvWlF/ugQE30GZ8KDECOs4ORQAw3K1UFp0wevzK6vFvcjjuJEVCJcSrVCy1LOlm+KwTAMwzAMwzBMkSA/oEqcj84/jcEhj5m49uZEVDMOAsRd/LSsFj4JaoaZ4/7FRBcOARiGYRiGYRiGeX6Rfw9H4w53WyW0wXPx3oHfseHmvzh+7ygO+C3G5K29MSVQi5IV+6GH8fueGIZhGIZhGIZhnkMseIZKh3v+n2Po7jk4HJ+a6zW3CoUTatUcjznd/oeXC7WOj2EYhmEYhmEYpvhj0aYUGegjce3eMVyMDkecTgFbm/Ko7dEaTZ0cebMEhmEYhmEYhmH+E1geUDEMwzAMwzAMw/zH4ZtJDMMwDMMwDMMwFsIBFcMwDMMwDMMwjIVwQMUwDMMwDMMwDGMhlgVUqXfxQbXJUCgmQaH8DuVf+Rf/RvHzVwzDMAzDMAzD/LewLKBSl8TL77TEe4MrooKVDsEH/sVb3gFIkr5mGIZhGIZhGIb5L1DIXf708P1+CRp/FQxdzZY4fKkTWlpJXzEMwzAMwzAMwzznFPIZKiWqt/ZAeRWFVvcTEKqXkhmGYRiGYRiGYf4DFH5TCrUSFE9BaHXQPiqgSovAwsHz4FZiJuoPOIsraVI6wzAMwzAMwzDMM0rhAyqlMrMQvcCj4qnUo2fw/foIPIhPxtUtx7HwhE76hmEYhmEYhmEY5tmk0AGVupwDSlMpIuU+zl3USqkPo65aFnVLZn5WOpZC/SqFj+UYhmEYhmEYhmGeJoXclILQRWNJ3yV4d3sCFG5l0aWLBxr1aI1v+jhnLAU0Jv7adaw7EI+y7euhW32bx3B7jGEYhmEYhmEY5ulR+ICKSLxyHmMH/o3VvqnQCQVqTRiBSz9UAG/4xzAMwzAMwzDM80zhA6qUu/i4wUrMvgG4d2yG8W94oFbjani1oR3fgWIYhmEYhmEY5rmm0DGP9vpdHL6jB6wq4rPlnTF+pCe65RlMpeD03F3o0Xkd3l8ShgQplWEYhmEYhmEY5lml0AGVPiENCYYbW9Z2KOOsyEzMA92t8/jk43PY+bc/fh+zFdPP8EurGIZhGIZhGIZ5tin8qjwzlwkqHOzgZp/5WaQ9wIEDUeCN0xmGYRiGYRiGeZZ5fI85KfK/O2VAWcYLP/1YC2WkX7Rw/wuGYRiGYRiGYZhiQ6EDqtTQBETqqSB7Kzia7pOeCyUqdKiImoY8qhJo3tLpoW3VGYZhGIZhGIZhniUsDKjSEXHnPi4ePI/x3/kjigIqW093eGmkr3OhReSdCJzaex6fjzqBE1oFynRri4/aqqXvGYZhGIZhGIZhnk0s2zY99S4+qLsCc25n5lc4lMWnO4djenubjH/nQhuMLxstwbQreig0tmg0qAPmzW6G5k7S9wzDMAzDMAzDMM8olgVU2lD8/MZf2B5lhXK1K6DnO03Rz8s279td+gQcWeULP40zGr9YCU08+HW/DMMwDMMwDMM8DwD/BxjyTrYZOoX1AAAAAElFTkSuQmCC;" vertex="1" parent="1">
          <mxGeometry x="580" y="915" width="498.51" height="110" as="geometry" />
        </mxCell>
        <mxCell id="9WvtvUq7fJrsQNisKzhk-18" value="&lt;div style=&quot;border-color: var(--border-color); color: rgb(56, 58, 66); font-family: Consolas, &amp;quot;Courier New&amp;quot;, monospace; font-size: 14px;&quot;&gt;Fully decompiling the encryption key generation was out of scope so Skuratovich (2016) was relied upon for the details, however the memory and execution flow was compared and showed significant similarities to the output and method described in the report&lt;/div&gt;" style="text;html=1;strokeColor=none;fillColor=none;align=center;verticalAlign=middle;whiteSpace=wrap;rounded=0;" vertex="1" parent="1">
          <mxGeometry x="580" y="1045" width="270" height="132.5" as="geometry" />
        </mxCell>
        <mxCell id="9WvtvUq7fJrsQNisKzhk-19" value="&lt;div style=&quot;border-color: var(--border-color); color: rgb(56, 58, 66); font-family: Consolas, &amp;quot;Courier New&amp;quot;, monospace; font-size: 14px;&quot;&gt;&lt;span style=&quot;background-color: initial;&quot;&gt;Skuratovich (2016)&lt;/span&gt;&lt;br&gt;&lt;/div&gt;" style="text;html=1;strokeColor=none;fillColor=none;align=center;verticalAlign=middle;whiteSpace=wrap;rounded=0;" vertex="1" parent="1">
          <mxGeometry x="680" y="890" width="270" height="20" as="geometry" />
        </mxCell>
        <mxCell id="9WvtvUq7fJrsQNisKzhk-20" value="&lt;div style=&quot;border-color: var(--border-color); font-family: Consolas, &amp;quot;Courier New&amp;quot;, monospace; font-size: 14px; line-height: 19px;&quot;&gt;&lt;font color=&quot;#383a42&quot;&gt;Once the reg_data structure is populated, an&amp;nbsp;&lt;/font&gt;AES&lt;span style=&quot;color: rgb(166, 38, 164);&quot;&gt;-&lt;/span&gt;&lt;span style=&quot;color: rgb(56, 58, 66);&quot;&gt;CBC&lt;/span&gt;&lt;span style=&quot;color: rgb(166, 38, 164);&quot;&gt;-&lt;/span&gt;&lt;span style=&quot;color: rgb(152, 104, 1);&quot;&gt;128 &lt;/span&gt;&lt;font color=&quot;#383a42&quot;&gt;session key is generated and stored in memory, which will be used to encrypt the files.&lt;/font&gt;&lt;span style=&quot;background-color: rgb(250, 250, 250); color: rgb(56, 58, 66);&quot;&gt;&lt;/span&gt;&lt;/div&gt;" style="rounded=0;whiteSpace=wrap;html=1;fillColor=#fff2cc;strokeColor=#d6b656;" vertex="1" parent="1">
          <mxGeometry x="-50" y="1090" width="620" height="70" as="geometry" />
        </mxCell>
      </root>
    </mxGraphModel>
  </diagram>
</mxfile>
